<mxfile host="app.diagrams.net" modified="2021-11-28T04:05:46.678Z" agent="5.0 (Windows NT 10.0; Win64; x64) AppleWebKit/537.36 (KHTML, like Gecko) Chrome/96.0.4664.45 Safari/537.36" etag="fXDUGpchcVoZEs_qDZEa" version="15.8.6" type="github">
  <diagram id="xIY47P2NQ7IDZa7dhchu" name="__pageAddToFreeHash-25">
    <mxGraphModel dx="1842" dy="2167" grid="1" gridSize="10" guides="1" tooltips="1" connect="1" arrows="1" fold="1" page="1" pageScale="1" pageWidth="827" pageHeight="1169" math="0" shadow="0">
      <root>
        <mxCell id="0" />
        <mxCell id="1" parent="0" />
        <mxCell id="MPrAv_WxjmN06zbMls3C-1" value="" style="rounded=0;whiteSpace=wrap;html=1;dashed=1;fontSize=18;strokeColor=#ae4132;strokeWidth=2;fillColor=#fad9d5;align=center;opacity=50;" parent="1" vertex="1">
          <mxGeometry x="1660" y="-470" width="1980" height="1220" as="geometry" />
        </mxCell>
        <mxCell id="MPrAv_WxjmN06zbMls3C-2" value="" style="rounded=0;whiteSpace=wrap;html=1;dashed=1;fontSize=18;strokeColor=#b46504;strokeWidth=2;fillColor=#fad7ac;align=center;opacity=50;" parent="1" vertex="1">
          <mxGeometry x="260" y="-470" width="1190" height="1100" as="geometry" />
        </mxCell>
        <mxCell id="MPrAv_WxjmN06zbMls3C-3" value="" style="rounded=0;whiteSpace=wrap;html=1;fontSize=18;strokeColor=#0e8088;fillColor=#b0e3e6;align=left;opacity=70;" parent="1" vertex="1">
          <mxGeometry x="1698" y="-180" width="240" height="440" as="geometry" />
        </mxCell>
        <mxCell id="MPrAv_WxjmN06zbMls3C-4" value="" style="rounded=0;whiteSpace=wrap;html=1;fontSize=18;strokeColor=#82b366;fillColor=#d5e8d4;gradientColor=#97d077;align=left;opacity=70;" parent="1" vertex="1">
          <mxGeometry x="1698" y="260" width="240" height="120" as="geometry" />
        </mxCell>
        <mxCell id="MPrAv_WxjmN06zbMls3C-5" value="" style="shape=table;startSize=0;container=1;collapsible=0;childLayout=tableLayout;fontSize=18;strokeColor=default;fillColor=none;align=left;" parent="1" vertex="1">
          <mxGeometry x="1698" y="-220" width="530" height="600" as="geometry" />
        </mxCell>
        <mxCell id="MPrAv_WxjmN06zbMls3C-6" style="shape=partialRectangle;collapsible=0;dropTarget=0;pointerEvents=0;fillColor=none;top=0;left=0;bottom=0;right=0;points=[[0,0.5],[1,0.5]];portConstraint=eastwest;fontSize=18;strokeColor=default;" parent="MPrAv_WxjmN06zbMls3C-5" vertex="1">
          <mxGeometry width="530" height="40" as="geometry" />
        </mxCell>
        <mxCell id="MPrAv_WxjmN06zbMls3C-7" value="地址" style="shape=partialRectangle;html=1;whiteSpace=wrap;connectable=0;overflow=hidden;fillColor=#bac8d3;top=0;left=0;bottom=0;right=0;pointerEvents=1;fontSize=18;strokeColor=#23445d;align=center;" parent="MPrAv_WxjmN06zbMls3C-6" vertex="1">
          <mxGeometry width="240" height="40" as="geometry">
            <mxRectangle width="240" height="40" as="alternateBounds" />
          </mxGeometry>
        </mxCell>
        <mxCell id="MPrAv_WxjmN06zbMls3C-8" value="值" style="shape=partialRectangle;html=1;whiteSpace=wrap;connectable=0;overflow=hidden;fillColor=#bac8d3;top=0;left=0;bottom=0;right=0;pointerEvents=1;fontSize=18;strokeColor=#23445d;align=center;" parent="MPrAv_WxjmN06zbMls3C-6" vertex="1">
          <mxGeometry x="240" width="290" height="40" as="geometry">
            <mxRectangle width="290" height="40" as="alternateBounds" />
          </mxGeometry>
        </mxCell>
        <mxCell id="MPrAv_WxjmN06zbMls3C-9" value="" style="shape=partialRectangle;collapsible=0;dropTarget=0;pointerEvents=0;fillColor=none;top=0;left=0;bottom=0;right=0;points=[[0,0.5],[1,0.5]];portConstraint=eastwest;fontSize=18;strokeColor=default;" parent="MPrAv_WxjmN06zbMls3C-5" vertex="1">
          <mxGeometry y="40" width="530" height="40" as="geometry" />
        </mxCell>
        <mxCell id="MPrAv_WxjmN06zbMls3C-10" value="PAGE_lineFreeHash" style="shape=partialRectangle;html=1;whiteSpace=wrap;connectable=0;overflow=hidden;fillColor=#6a00ff;top=0;left=0;bottom=0;right=0;pointerEvents=1;fontSize=18;strokeColor=#3700CC;align=left;fontColor=#ffffff;" parent="MPrAv_WxjmN06zbMls3C-9" vertex="1">
          <mxGeometry width="240" height="40" as="geometry">
            <mxRectangle width="240" height="40" as="alternateBounds" />
          </mxGeometry>
        </mxCell>
        <mxCell id="MPrAv_WxjmN06zbMls3C-11" value="" style="shape=partialRectangle;html=1;whiteSpace=wrap;connectable=0;overflow=hidden;fillColor=none;top=0;left=0;bottom=0;right=0;pointerEvents=1;fontSize=18;strokeColor=default;align=center;" parent="MPrAv_WxjmN06zbMls3C-9" vertex="1">
          <mxGeometry x="240" width="290" height="40" as="geometry">
            <mxRectangle width="290" height="40" as="alternateBounds" />
          </mxGeometry>
        </mxCell>
        <mxCell id="MPrAv_WxjmN06zbMls3C-12" value="" style="shape=partialRectangle;collapsible=0;dropTarget=0;pointerEvents=0;fillColor=none;top=0;left=0;bottom=0;right=0;points=[[0,0.5],[1,0.5]];portConstraint=eastwest;fontSize=18;strokeColor=default;" parent="MPrAv_WxjmN06zbMls3C-5" vertex="1">
          <mxGeometry y="80" width="530" height="40" as="geometry" />
        </mxCell>
        <mxCell id="MPrAv_WxjmN06zbMls3C-13" value="PAGE_lineManage" style="shape=partialRectangle;html=1;whiteSpace=wrap;connectable=0;overflow=hidden;fillColor=none;top=0;left=0;bottom=0;right=0;pointerEvents=1;fontSize=18;strokeColor=default;align=left;" parent="MPrAv_WxjmN06zbMls3C-12" vertex="1">
          <mxGeometry width="240" height="40" as="geometry">
            <mxRectangle width="240" height="40" as="alternateBounds" />
          </mxGeometry>
        </mxCell>
        <mxCell id="MPrAv_WxjmN06zbMls3C-14" value="" style="shape=partialRectangle;html=1;whiteSpace=wrap;connectable=0;overflow=hidden;fillColor=none;top=0;left=0;bottom=0;right=0;pointerEvents=1;fontSize=18;strokeColor=default;align=center;" parent="MPrAv_WxjmN06zbMls3C-12" vertex="1">
          <mxGeometry x="240" width="290" height="40" as="geometry">
            <mxRectangle width="290" height="40" as="alternateBounds" />
          </mxGeometry>
        </mxCell>
        <mxCell id="MPrAv_WxjmN06zbMls3C-15" value="" style="shape=partialRectangle;collapsible=0;dropTarget=0;pointerEvents=0;fillColor=none;top=0;left=0;bottom=0;right=0;points=[[0,0.5],[1,0.5]];portConstraint=eastwest;fontSize=18;strokeColor=default;" parent="MPrAv_WxjmN06zbMls3C-5" vertex="1">
          <mxGeometry y="120" width="530" height="40" as="geometry" />
        </mxCell>
        <mxCell id="MPrAv_WxjmN06zbMls3C-16" value="PAGE_trbnNode" style="shape=partialRectangle;html=1;whiteSpace=wrap;connectable=0;overflow=hidden;fillColor=none;top=0;left=0;bottom=0;right=0;pointerEvents=1;fontSize=18;strokeColor=default;align=left;" parent="MPrAv_WxjmN06zbMls3C-15" vertex="1">
          <mxGeometry width="240" height="40" as="geometry">
            <mxRectangle width="240" height="40" as="alternateBounds" />
          </mxGeometry>
        </mxCell>
        <mxCell id="MPrAv_WxjmN06zbMls3C-17" value="&lt;span style=&quot;&quot;&gt;Unknow&lt;/span&gt;" style="shape=partialRectangle;html=1;whiteSpace=wrap;connectable=0;overflow=hidden;fillColor=none;top=0;left=0;bottom=0;right=0;pointerEvents=1;fontSize=18;strokeColor=default;align=center;" parent="MPrAv_WxjmN06zbMls3C-15" vertex="1">
          <mxGeometry x="240" width="290" height="40" as="geometry">
            <mxRectangle width="290" height="40" as="alternateBounds" />
          </mxGeometry>
        </mxCell>
        <mxCell id="MPrAv_WxjmN06zbMls3C-18" value="" style="shape=partialRectangle;collapsible=0;dropTarget=0;pointerEvents=0;fillColor=none;top=0;left=0;bottom=0;right=0;points=[[0,0.5],[1,0.5]];portConstraint=eastwest;fontSize=18;strokeColor=default;" parent="MPrAv_WxjmN06zbMls3C-5" vertex="1">
          <mxGeometry y="160" width="530" height="40" as="geometry" />
        </mxCell>
        <mxCell id="MPrAv_WxjmN06zbMls3C-19" value="PAGE_ulCount" style="shape=partialRectangle;html=1;whiteSpace=wrap;connectable=0;overflow=hidden;fillColor=none;top=0;left=0;bottom=0;right=0;pointerEvents=1;fontSize=18;strokeColor=default;align=left;" parent="MPrAv_WxjmN06zbMls3C-18" vertex="1">
          <mxGeometry width="240" height="40" as="geometry">
            <mxRectangle width="240" height="40" as="alternateBounds" />
          </mxGeometry>
        </mxCell>
        <mxCell id="MPrAv_WxjmN06zbMls3C-20" value="1000" style="shape=partialRectangle;html=1;whiteSpace=wrap;connectable=0;overflow=hidden;fillColor=none;top=0;left=0;bottom=0;right=0;pointerEvents=1;fontSize=18;strokeColor=default;align=center;" parent="MPrAv_WxjmN06zbMls3C-18" vertex="1">
          <mxGeometry x="240" width="290" height="40" as="geometry">
            <mxRectangle width="290" height="40" as="alternateBounds" />
          </mxGeometry>
        </mxCell>
        <mxCell id="MPrAv_WxjmN06zbMls3C-21" value="" style="shape=partialRectangle;collapsible=0;dropTarget=0;pointerEvents=0;fillColor=none;top=0;left=0;bottom=0;right=0;points=[[0,0.5],[1,0.5]];portConstraint=eastwest;fontSize=18;strokeColor=default;" parent="MPrAv_WxjmN06zbMls3C-5" vertex="1">
          <mxGeometry y="200" width="530" height="40" as="geometry" />
        </mxCell>
        <mxCell id="MPrAv_WxjmN06zbMls3C-22" value="PAGE_ulPageAddr" style="shape=partialRectangle;html=1;whiteSpace=wrap;connectable=0;overflow=hidden;fillColor=none;top=0;left=0;bottom=0;right=0;pointerEvents=1;fontSize=18;strokeColor=default;align=left;" parent="MPrAv_WxjmN06zbMls3C-21" vertex="1">
          <mxGeometry width="240" height="40" as="geometry">
            <mxRectangle width="240" height="40" as="alternateBounds" />
          </mxGeometry>
        </mxCell>
        <mxCell id="MPrAv_WxjmN06zbMls3C-23" value="0x20000000" style="shape=partialRectangle;html=1;whiteSpace=wrap;connectable=0;overflow=hidden;fillColor=none;top=0;left=0;bottom=0;right=0;pointerEvents=1;fontSize=18;strokeColor=default;align=center;" parent="MPrAv_WxjmN06zbMls3C-21" vertex="1">
          <mxGeometry x="240" width="290" height="40" as="geometry">
            <mxRectangle width="290" height="40" as="alternateBounds" />
          </mxGeometry>
        </mxCell>
        <mxCell id="MPrAv_WxjmN06zbMls3C-24" value="" style="shape=partialRectangle;collapsible=0;dropTarget=0;pointerEvents=0;fillColor=none;top=0;left=0;bottom=0;right=0;points=[[0,0.5],[1,0.5]];portConstraint=eastwest;fontSize=18;strokeColor=default;" parent="MPrAv_WxjmN06zbMls3C-5" vertex="1">
          <mxGeometry y="240" width="530" height="40" as="geometry" />
        </mxCell>
        <mxCell id="MPrAv_WxjmN06zbMls3C-25" value="PAGE_iPageType" style="shape=partialRectangle;html=1;whiteSpace=wrap;connectable=0;overflow=hidden;fillColor=none;top=0;left=0;bottom=0;right=0;pointerEvents=1;fontSize=18;strokeColor=default;align=left;" parent="MPrAv_WxjmN06zbMls3C-24" vertex="1">
          <mxGeometry width="240" height="40" as="geometry">
            <mxRectangle width="240" height="40" as="alternateBounds" />
          </mxGeometry>
        </mxCell>
        <mxCell id="MPrAv_WxjmN06zbMls3C-26" value="1(__VMM_PAGE_TYPE_VIRTUAL)" style="shape=partialRectangle;html=1;whiteSpace=wrap;connectable=0;overflow=hidden;fillColor=none;top=0;left=0;bottom=0;right=0;pointerEvents=1;fontSize=18;strokeColor=default;align=center;" parent="MPrAv_WxjmN06zbMls3C-24" vertex="1">
          <mxGeometry x="240" width="290" height="40" as="geometry">
            <mxRectangle width="290" height="40" as="alternateBounds" />
          </mxGeometry>
        </mxCell>
        <mxCell id="MPrAv_WxjmN06zbMls3C-27" value="" style="shape=partialRectangle;collapsible=0;dropTarget=0;pointerEvents=0;fillColor=none;top=0;left=0;bottom=0;right=0;points=[[0,0.5],[1,0.5]];portConstraint=eastwest;fontSize=18;strokeColor=default;" parent="MPrAv_WxjmN06zbMls3C-5" vertex="1">
          <mxGeometry y="280" width="530" height="40" as="geometry" />
        </mxCell>
        <mxCell id="MPrAv_WxjmN06zbMls3C-28" value="PAGE_ulFlags" style="shape=partialRectangle;html=1;whiteSpace=wrap;connectable=0;overflow=hidden;fillColor=none;top=0;left=0;bottom=0;right=0;pointerEvents=1;fontSize=18;strokeColor=default;align=left;" parent="MPrAv_WxjmN06zbMls3C-27" vertex="1">
          <mxGeometry width="240" height="40" as="geometry">
            <mxRectangle width="240" height="40" as="alternateBounds" />
          </mxGeometry>
        </mxCell>
        <mxCell id="MPrAv_WxjmN06zbMls3C-29" value="&lt;span&gt;0&lt;/span&gt;" style="shape=partialRectangle;html=1;whiteSpace=wrap;connectable=0;overflow=hidden;fillColor=none;top=0;left=0;bottom=0;right=0;pointerEvents=1;fontSize=18;strokeColor=default;align=center;" parent="MPrAv_WxjmN06zbMls3C-27" vertex="1">
          <mxGeometry x="240" width="290" height="40" as="geometry">
            <mxRectangle width="290" height="40" as="alternateBounds" />
          </mxGeometry>
        </mxCell>
        <mxCell id="MPrAv_WxjmN06zbMls3C-30" style="shape=partialRectangle;collapsible=0;dropTarget=0;pointerEvents=0;fillColor=none;top=0;left=0;bottom=0;right=0;points=[[0,0.5],[1,0.5]];portConstraint=eastwest;fontSize=18;strokeColor=default;" parent="MPrAv_WxjmN06zbMls3C-5" vertex="1">
          <mxGeometry y="320" width="530" height="40" as="geometry" />
        </mxCell>
        <mxCell id="MPrAv_WxjmN06zbMls3C-31" value="PAGE_bUsed" style="shape=partialRectangle;html=1;whiteSpace=wrap;connectable=0;overflow=hidden;fillColor=none;top=0;left=0;bottom=0;right=0;pointerEvents=1;fontSize=18;strokeColor=default;align=left;" parent="MPrAv_WxjmN06zbMls3C-30" vertex="1">
          <mxGeometry width="240" height="40" as="geometry">
            <mxRectangle width="240" height="40" as="alternateBounds" />
          </mxGeometry>
        </mxCell>
        <mxCell id="MPrAv_WxjmN06zbMls3C-32" value="LW_FALSE" style="shape=partialRectangle;html=1;whiteSpace=wrap;connectable=0;overflow=hidden;fillColor=none;top=0;left=0;bottom=0;right=0;pointerEvents=1;fontSize=18;strokeColor=default;align=center;" parent="MPrAv_WxjmN06zbMls3C-30" vertex="1">
          <mxGeometry x="240" width="290" height="40" as="geometry">
            <mxRectangle width="290" height="40" as="alternateBounds" />
          </mxGeometry>
        </mxCell>
        <mxCell id="MPrAv_WxjmN06zbMls3C-33" style="shape=partialRectangle;collapsible=0;dropTarget=0;pointerEvents=0;fillColor=none;top=0;left=0;bottom=0;right=0;points=[[0,0.5],[1,0.5]];portConstraint=eastwest;fontSize=18;strokeColor=default;" parent="MPrAv_WxjmN06zbMls3C-5" vertex="1">
          <mxGeometry y="360" width="530" height="40" as="geometry" />
        </mxCell>
        <mxCell id="MPrAv_WxjmN06zbMls3C-34" value="PAGE_pvmzoneOwner" style="shape=partialRectangle;html=1;whiteSpace=wrap;connectable=0;overflow=hidden;fillColor=none;top=0;left=0;bottom=0;right=0;pointerEvents=1;fontSize=18;strokeColor=default;align=left;" parent="MPrAv_WxjmN06zbMls3C-33" vertex="1">
          <mxGeometry width="240" height="40" as="geometry">
            <mxRectangle width="240" height="40" as="alternateBounds" />
          </mxGeometry>
        </mxCell>
        <mxCell id="MPrAv_WxjmN06zbMls3C-35" value="pvmzone" style="shape=partialRectangle;html=1;whiteSpace=wrap;connectable=0;overflow=hidden;fillColor=#fa6800;top=0;left=0;bottom=0;right=0;pointerEvents=1;fontSize=18;strokeColor=#C73500;align=center;fontColor=#000000;" parent="MPrAv_WxjmN06zbMls3C-33" vertex="1">
          <mxGeometry x="240" width="290" height="40" as="geometry">
            <mxRectangle width="290" height="40" as="alternateBounds" />
          </mxGeometry>
        </mxCell>
        <mxCell id="MPrAv_WxjmN06zbMls3C-36" style="shape=partialRectangle;collapsible=0;dropTarget=0;pointerEvents=0;fillColor=none;top=0;left=0;bottom=0;right=0;points=[[0,0.5],[1,0.5]];portConstraint=eastwest;fontSize=18;strokeColor=default;" parent="MPrAv_WxjmN06zbMls3C-5" vertex="1">
          <mxGeometry y="400" width="530" height="40" as="geometry" />
        </mxCell>
        <mxCell id="MPrAv_WxjmN06zbMls3C-37" value="VPAGE_pvAreaCb" style="shape=partialRectangle;html=1;whiteSpace=wrap;connectable=0;overflow=hidden;fillColor=none;top=0;left=0;bottom=0;right=0;pointerEvents=1;fontSize=18;strokeColor=default;align=left;" parent="MPrAv_WxjmN06zbMls3C-36" vertex="1">
          <mxGeometry width="240" height="40" as="geometry">
            <mxRectangle width="240" height="40" as="alternateBounds" />
          </mxGeometry>
        </mxCell>
        <mxCell id="MPrAv_WxjmN06zbMls3C-38" value="NULL" style="shape=partialRectangle;html=1;whiteSpace=wrap;connectable=0;overflow=hidden;fillColor=none;top=0;left=0;bottom=0;right=0;pointerEvents=1;fontSize=18;strokeColor=default;align=center;" parent="MPrAv_WxjmN06zbMls3C-36" vertex="1">
          <mxGeometry x="240" width="290" height="40" as="geometry">
            <mxRectangle width="290" height="40" as="alternateBounds" />
          </mxGeometry>
        </mxCell>
        <mxCell id="MPrAv_WxjmN06zbMls3C-39" style="shape=partialRectangle;collapsible=0;dropTarget=0;pointerEvents=0;fillColor=none;top=0;left=0;bottom=0;right=0;points=[[0,0.5],[1,0.5]];portConstraint=eastwest;fontSize=18;strokeColor=default;" parent="MPrAv_WxjmN06zbMls3C-5" vertex="1">
          <mxGeometry y="440" width="530" height="40" as="geometry" />
        </mxCell>
        <mxCell id="MPrAv_WxjmN06zbMls3C-40" value="VPAGE_plinePhyLink" style="shape=partialRectangle;html=1;whiteSpace=wrap;connectable=0;overflow=hidden;fillColor=none;top=0;left=0;bottom=0;right=0;pointerEvents=1;fontSize=18;strokeColor=default;align=left;" parent="MPrAv_WxjmN06zbMls3C-39" vertex="1">
          <mxGeometry width="240" height="40" as="geometry">
            <mxRectangle width="240" height="40" as="alternateBounds" />
          </mxGeometry>
        </mxCell>
        <mxCell id="MPrAv_WxjmN06zbMls3C-41" value="&lt;span&gt;指针&lt;/span&gt;" style="shape=partialRectangle;html=1;whiteSpace=wrap;connectable=0;overflow=hidden;fillColor=none;top=0;left=0;bottom=0;right=0;pointerEvents=1;fontSize=18;strokeColor=default;align=center;" parent="MPrAv_WxjmN06zbMls3C-39" vertex="1">
          <mxGeometry x="240" width="290" height="40" as="geometry">
            <mxRectangle width="290" height="40" as="alternateBounds" />
          </mxGeometry>
        </mxCell>
        <mxCell id="MPrAv_WxjmN06zbMls3C-42" style="shape=partialRectangle;collapsible=0;dropTarget=0;pointerEvents=0;fillColor=none;top=0;left=0;bottom=0;right=0;points=[[0,0.5],[1,0.5]];portConstraint=eastwest;fontSize=18;strokeColor=default;" parent="MPrAv_WxjmN06zbMls3C-5" vertex="1">
          <mxGeometry y="480" width="530" height="40" as="geometry" />
        </mxCell>
        <mxCell id="MPrAv_WxjmN06zbMls3C-43" value="LW_LIST_LINE_HEADER[0]" style="shape=partialRectangle;html=1;whiteSpace=wrap;connectable=0;overflow=hidden;fillColor=none;top=0;left=0;bottom=0;right=0;pointerEvents=1;fontSize=18;strokeColor=default;align=left;" parent="MPrAv_WxjmN06zbMls3C-42" vertex="1">
          <mxGeometry width="240" height="40" as="geometry">
            <mxRectangle width="240" height="40" as="alternateBounds" />
          </mxGeometry>
        </mxCell>
        <mxCell id="MPrAv_WxjmN06zbMls3C-44" value="NULL" style="shape=partialRectangle;html=1;whiteSpace=wrap;connectable=0;overflow=hidden;fillColor=none;top=0;left=0;bottom=0;right=0;pointerEvents=1;fontSize=18;strokeColor=default;align=center;" parent="MPrAv_WxjmN06zbMls3C-42" vertex="1">
          <mxGeometry x="240" width="290" height="40" as="geometry">
            <mxRectangle width="290" height="40" as="alternateBounds" />
          </mxGeometry>
        </mxCell>
        <mxCell id="MPrAv_WxjmN06zbMls3C-45" style="shape=partialRectangle;collapsible=0;dropTarget=0;pointerEvents=0;fillColor=none;top=0;left=0;bottom=0;right=0;points=[[0,0.5],[1,0.5]];portConstraint=eastwest;fontSize=18;strokeColor=default;" parent="MPrAv_WxjmN06zbMls3C-5" vertex="1">
          <mxGeometry y="520" width="530" height="40" as="geometry" />
        </mxCell>
        <mxCell id="MPrAv_WxjmN06zbMls3C-46" value="..." style="shape=partialRectangle;html=1;whiteSpace=wrap;connectable=0;overflow=hidden;fillColor=none;top=0;left=0;bottom=0;right=0;pointerEvents=1;fontSize=18;strokeColor=default;align=left;" parent="MPrAv_WxjmN06zbMls3C-45" vertex="1">
          <mxGeometry width="240" height="40" as="geometry">
            <mxRectangle width="240" height="40" as="alternateBounds" />
          </mxGeometry>
        </mxCell>
        <mxCell id="MPrAv_WxjmN06zbMls3C-47" value="NULL" style="shape=partialRectangle;html=1;whiteSpace=wrap;connectable=0;overflow=hidden;fillColor=none;top=0;left=0;bottom=0;right=0;pointerEvents=1;fontSize=18;strokeColor=default;align=center;" parent="MPrAv_WxjmN06zbMls3C-45" vertex="1">
          <mxGeometry x="240" width="290" height="40" as="geometry">
            <mxRectangle width="290" height="40" as="alternateBounds" />
          </mxGeometry>
        </mxCell>
        <mxCell id="MPrAv_WxjmN06zbMls3C-48" style="shape=partialRectangle;collapsible=0;dropTarget=0;pointerEvents=0;fillColor=none;top=0;left=0;bottom=0;right=0;points=[[0,0.5],[1,0.5]];portConstraint=eastwest;fontSize=18;strokeColor=default;" parent="MPrAv_WxjmN06zbMls3C-5" vertex="1">
          <mxGeometry y="560" width="530" height="40" as="geometry" />
        </mxCell>
        <mxCell id="MPrAv_WxjmN06zbMls3C-49" value="LW_LIST_LINE_HEADER[31]" style="shape=partialRectangle;html=1;whiteSpace=wrap;connectable=0;overflow=hidden;fillColor=none;top=0;left=0;bottom=0;right=0;pointerEvents=1;fontSize=18;strokeColor=default;align=left;" parent="MPrAv_WxjmN06zbMls3C-48" vertex="1">
          <mxGeometry width="240" height="40" as="geometry">
            <mxRectangle width="240" height="40" as="alternateBounds" />
          </mxGeometry>
        </mxCell>
        <mxCell id="MPrAv_WxjmN06zbMls3C-50" value="NULL" style="shape=partialRectangle;html=1;whiteSpace=wrap;connectable=0;overflow=hidden;fillColor=none;top=0;left=0;bottom=0;right=0;pointerEvents=1;fontSize=18;strokeColor=default;align=center;" parent="MPrAv_WxjmN06zbMls3C-48" vertex="1">
          <mxGeometry x="240" width="290" height="40" as="geometry">
            <mxRectangle width="290" height="40" as="alternateBounds" />
          </mxGeometry>
        </mxCell>
        <mxCell id="MPrAv_WxjmN06zbMls3C-51" value="" style="rounded=0;whiteSpace=wrap;html=1;fontSize=18;strokeColor=#C73500;fillColor=#fa6800;align=center;opacity=70;fontColor=#000000;" parent="1" vertex="1">
          <mxGeometry x="950" y="-290" width="160" height="560" as="geometry" />
        </mxCell>
        <mxCell id="MPrAv_WxjmN06zbMls3C-52" value="&lt;b&gt;pvmpageNewFree=pvmpageNew&lt;/b&gt;" style="text;whiteSpace=wrap;html=1;fontSize=18;" parent="1" vertex="1">
          <mxGeometry x="2750" y="-270" width="312" height="40" as="geometry" />
        </mxCell>
        <mxCell id="MPrAv_WxjmN06zbMls3C-53" value="" style="shape=table;startSize=0;container=1;collapsible=0;childLayout=tableLayout;fontSize=18;strokeColor=default;fillColor=none;align=left;" parent="1" vertex="1">
          <mxGeometry x="950" y="-330" width="480" height="600" as="geometry" />
        </mxCell>
        <mxCell id="MPrAv_WxjmN06zbMls3C-54" style="shape=partialRectangle;collapsible=0;dropTarget=0;pointerEvents=0;fillColor=none;top=0;left=0;bottom=0;right=0;points=[[0,0.5],[1,0.5]];portConstraint=eastwest;fontSize=18;strokeColor=default;" parent="MPrAv_WxjmN06zbMls3C-53" vertex="1">
          <mxGeometry width="480" height="40" as="geometry" />
        </mxCell>
        <mxCell id="MPrAv_WxjmN06zbMls3C-55" value="成员" style="shape=partialRectangle;html=1;whiteSpace=wrap;connectable=0;overflow=hidden;fillColor=#bac8d3;top=0;left=0;bottom=0;right=0;pointerEvents=1;fontSize=18;strokeColor=#23445d;align=center;" parent="MPrAv_WxjmN06zbMls3C-54" vertex="1">
          <mxGeometry width="160" height="40" as="geometry">
            <mxRectangle width="160" height="40" as="alternateBounds" />
          </mxGeometry>
        </mxCell>
        <mxCell id="MPrAv_WxjmN06zbMls3C-56" value="值" style="shape=partialRectangle;html=1;whiteSpace=wrap;connectable=0;overflow=hidden;fillColor=#bac8d3;top=0;left=0;bottom=0;right=0;pointerEvents=1;fontSize=18;strokeColor=#23445d;align=center;" parent="MPrAv_WxjmN06zbMls3C-54" vertex="1">
          <mxGeometry x="160" width="320" height="40" as="geometry">
            <mxRectangle width="320" height="40" as="alternateBounds" />
          </mxGeometry>
        </mxCell>
        <mxCell id="MPrAv_WxjmN06zbMls3C-57" value="" style="shape=partialRectangle;collapsible=0;dropTarget=0;pointerEvents=0;fillColor=none;top=0;left=0;bottom=0;right=0;points=[[0,0.5],[1,0.5]];portConstraint=eastwest;fontSize=18;strokeColor=default;" parent="MPrAv_WxjmN06zbMls3C-53" vertex="1">
          <mxGeometry y="40" width="480" height="40" as="geometry" />
        </mxCell>
        <mxCell id="MPrAv_WxjmN06zbMls3C-58" value="ZONE_ulFreePage" style="shape=partialRectangle;html=1;whiteSpace=wrap;connectable=0;overflow=hidden;fillColor=none;top=0;left=0;bottom=0;right=0;pointerEvents=1;fontSize=18;strokeColor=default;align=left;" parent="MPrAv_WxjmN06zbMls3C-57" vertex="1">
          <mxGeometry width="160" height="40" as="geometry">
            <mxRectangle width="160" height="40" as="alternateBounds" />
          </mxGeometry>
        </mxCell>
        <mxCell id="MPrAv_WxjmN06zbMls3C-59" value="9000" style="shape=partialRectangle;html=1;whiteSpace=wrap;connectable=0;overflow=hidden;fillColor=none;top=0;left=0;bottom=0;right=0;pointerEvents=1;fontSize=18;strokeColor=default;align=center;" parent="MPrAv_WxjmN06zbMls3C-57" vertex="1">
          <mxGeometry x="160" width="320" height="40" as="geometry">
            <mxRectangle width="320" height="40" as="alternateBounds" />
          </mxGeometry>
        </mxCell>
        <mxCell id="MPrAv_WxjmN06zbMls3C-60" value="" style="shape=partialRectangle;collapsible=0;dropTarget=0;pointerEvents=0;fillColor=none;top=0;left=0;bottom=0;right=0;points=[[0,0.5],[1,0.5]];portConstraint=eastwest;fontSize=18;strokeColor=default;" parent="MPrAv_WxjmN06zbMls3C-53" vertex="1">
          <mxGeometry y="80" width="480" height="40" as="geometry" />
        </mxCell>
        <mxCell id="MPrAv_WxjmN06zbMls3C-61" value="ZONE_ulAddr" style="shape=partialRectangle;html=1;whiteSpace=wrap;connectable=0;overflow=hidden;fillColor=none;top=0;left=0;bottom=0;right=0;pointerEvents=1;fontSize=18;strokeColor=default;align=left;" parent="MPrAv_WxjmN06zbMls3C-60" vertex="1">
          <mxGeometry width="160" height="40" as="geometry">
            <mxRectangle width="160" height="40" as="alternateBounds" />
          </mxGeometry>
        </mxCell>
        <mxCell id="MPrAv_WxjmN06zbMls3C-62" value="0x20000000" style="shape=partialRectangle;html=1;whiteSpace=wrap;connectable=0;overflow=hidden;fillColor=none;top=0;left=0;bottom=0;right=0;pointerEvents=1;fontSize=18;strokeColor=default;align=center;" parent="MPrAv_WxjmN06zbMls3C-60" vertex="1">
          <mxGeometry x="160" width="320" height="40" as="geometry">
            <mxRectangle width="320" height="40" as="alternateBounds" />
          </mxGeometry>
        </mxCell>
        <mxCell id="MPrAv_WxjmN06zbMls3C-63" value="" style="shape=partialRectangle;collapsible=0;dropTarget=0;pointerEvents=0;fillColor=none;top=0;left=0;bottom=0;right=0;points=[[0,0.5],[1,0.5]];portConstraint=eastwest;fontSize=18;strokeColor=default;" parent="MPrAv_WxjmN06zbMls3C-53" vertex="1">
          <mxGeometry y="120" width="480" height="40" as="geometry" />
        </mxCell>
        <mxCell id="MPrAv_WxjmN06zbMls3C-64" value="ZONE_stSize" style="shape=partialRectangle;html=1;whiteSpace=wrap;connectable=0;overflow=hidden;fillColor=none;top=0;left=0;bottom=0;right=0;pointerEvents=1;fontSize=18;strokeColor=default;align=left;" parent="MPrAv_WxjmN06zbMls3C-63" vertex="1">
          <mxGeometry width="160" height="40" as="geometry">
            <mxRectangle width="160" height="40" as="alternateBounds" />
          </mxGeometry>
        </mxCell>
        <mxCell id="MPrAv_WxjmN06zbMls3C-65" value="&lt;span&gt;1x1024x1024x1024(1GB)&lt;/span&gt;" style="shape=partialRectangle;html=1;whiteSpace=wrap;connectable=0;overflow=hidden;fillColor=none;top=0;left=0;bottom=0;right=0;pointerEvents=1;fontSize=18;strokeColor=default;align=center;" parent="MPrAv_WxjmN06zbMls3C-63" vertex="1">
          <mxGeometry x="160" width="320" height="40" as="geometry">
            <mxRectangle width="320" height="40" as="alternateBounds" />
          </mxGeometry>
        </mxCell>
        <mxCell id="MPrAv_WxjmN06zbMls3C-66" value="" style="shape=partialRectangle;collapsible=0;dropTarget=0;pointerEvents=0;fillColor=none;top=0;left=0;bottom=0;right=0;points=[[0,0.5],[1,0.5]];portConstraint=eastwest;fontSize=18;strokeColor=default;" parent="MPrAv_WxjmN06zbMls3C-53" vertex="1">
          <mxGeometry y="160" width="480" height="40" as="geometry" />
        </mxCell>
        <mxCell id="MPrAv_WxjmN06zbMls3C-67" value="ZONE_uiAttr" style="shape=partialRectangle;html=1;whiteSpace=wrap;connectable=0;overflow=hidden;fillColor=none;top=0;left=0;bottom=0;right=0;pointerEvents=1;fontSize=18;strokeColor=default;align=left;" parent="MPrAv_WxjmN06zbMls3C-66" vertex="1">
          <mxGeometry width="160" height="40" as="geometry">
            <mxRectangle width="160" height="40" as="alternateBounds" />
          </mxGeometry>
        </mxCell>
        <mxCell id="MPrAv_WxjmN06zbMls3C-68" value="&lt;span&gt;0(LW_ZONE_ATTR_NONE)&lt;/span&gt;" style="shape=partialRectangle;html=1;whiteSpace=wrap;connectable=0;overflow=hidden;fillColor=none;top=0;left=0;bottom=0;right=0;pointerEvents=1;fontSize=18;strokeColor=default;align=center;" parent="MPrAv_WxjmN06zbMls3C-66" vertex="1">
          <mxGeometry x="160" width="320" height="40" as="geometry">
            <mxRectangle width="320" height="40" as="alternateBounds" />
          </mxGeometry>
        </mxCell>
        <mxCell id="MPrAv_WxjmN06zbMls3C-69" value="" style="shape=partialRectangle;collapsible=0;dropTarget=0;pointerEvents=0;fillColor=none;top=0;left=0;bottom=0;right=0;points=[[0,0.5],[1,0.5]];portConstraint=eastwest;fontSize=18;strokeColor=default;" parent="MPrAv_WxjmN06zbMls3C-53" vertex="1">
          <mxGeometry y="200" width="480" height="40" as="geometry" />
        </mxCell>
        <mxCell id="MPrAv_WxjmN06zbMls3C-70" value="ZONE_vmfa[0]" style="shape=partialRectangle;html=1;whiteSpace=wrap;connectable=0;overflow=hidden;fillColor=none;top=0;left=0;bottom=0;right=0;pointerEvents=1;fontSize=18;strokeColor=default;align=left;" parent="MPrAv_WxjmN06zbMls3C-69" vertex="1">
          <mxGeometry width="160" height="40" as="geometry">
            <mxRectangle width="160" height="40" as="alternateBounds" />
          </mxGeometry>
        </mxCell>
        <mxCell id="MPrAv_WxjmN06zbMls3C-71" value="&lt;span&gt;0&lt;/span&gt;" style="shape=partialRectangle;html=1;whiteSpace=wrap;connectable=0;overflow=hidden;fillColor=none;top=0;left=0;bottom=0;right=0;pointerEvents=1;fontSize=18;strokeColor=default;align=center;" parent="MPrAv_WxjmN06zbMls3C-69" vertex="1">
          <mxGeometry x="160" width="320" height="40" as="geometry">
            <mxRectangle width="320" height="40" as="alternateBounds" />
          </mxGeometry>
        </mxCell>
        <mxCell id="MPrAv_WxjmN06zbMls3C-72" value="" style="shape=partialRectangle;collapsible=0;dropTarget=0;pointerEvents=0;fillColor=none;top=0;left=0;bottom=0;right=0;points=[[0,0.5],[1,0.5]];portConstraint=eastwest;fontSize=18;strokeColor=default;" parent="MPrAv_WxjmN06zbMls3C-53" vertex="1">
          <mxGeometry y="240" width="480" height="40" as="geometry" />
        </mxCell>
        <mxCell id="MPrAv_WxjmN06zbMls3C-73" value="ZONE_vmfa[1]" style="shape=partialRectangle;html=1;whiteSpace=wrap;connectable=0;overflow=hidden;fillColor=none;top=0;left=0;bottom=0;right=0;pointerEvents=1;fontSize=18;strokeColor=default;align=left;" parent="MPrAv_WxjmN06zbMls3C-72" vertex="1">
          <mxGeometry width="160" height="40" as="geometry">
            <mxRectangle width="160" height="40" as="alternateBounds" />
          </mxGeometry>
        </mxCell>
        <mxCell id="MPrAv_WxjmN06zbMls3C-74" value="&lt;span&gt;0&lt;/span&gt;" style="shape=partialRectangle;html=1;whiteSpace=wrap;connectable=0;overflow=hidden;fillColor=none;top=0;left=0;bottom=0;right=0;pointerEvents=1;fontSize=18;strokeColor=default;align=center;" parent="MPrAv_WxjmN06zbMls3C-72" vertex="1">
          <mxGeometry x="160" width="320" height="40" as="geometry">
            <mxRectangle width="320" height="40" as="alternateBounds" />
          </mxGeometry>
        </mxCell>
        <mxCell id="MPrAv_WxjmN06zbMls3C-75" value="" style="shape=partialRectangle;collapsible=0;dropTarget=0;pointerEvents=0;fillColor=none;top=0;left=0;bottom=0;right=0;points=[[0,0.5],[1,0.5]];portConstraint=eastwest;fontSize=18;strokeColor=default;" parent="MPrAv_WxjmN06zbMls3C-53" vertex="1">
          <mxGeometry y="280" width="480" height="40" as="geometry" />
        </mxCell>
        <mxCell id="MPrAv_WxjmN06zbMls3C-76" value="ZONE_vmfa[2]" style="shape=partialRectangle;html=1;whiteSpace=wrap;connectable=0;overflow=hidden;fillColor=none;top=0;left=0;bottom=0;right=0;pointerEvents=1;fontSize=18;strokeColor=default;align=left;" parent="MPrAv_WxjmN06zbMls3C-75" vertex="1">
          <mxGeometry width="160" height="40" as="geometry">
            <mxRectangle width="160" height="40" as="alternateBounds" />
          </mxGeometry>
        </mxCell>
        <mxCell id="MPrAv_WxjmN06zbMls3C-77" value="&lt;span&gt;0&lt;/span&gt;" style="shape=partialRectangle;html=1;whiteSpace=wrap;connectable=0;overflow=hidden;fillColor=none;top=0;left=0;bottom=0;right=0;pointerEvents=1;fontSize=18;strokeColor=default;align=center;" parent="MPrAv_WxjmN06zbMls3C-75" vertex="1">
          <mxGeometry x="160" width="320" height="40" as="geometry">
            <mxRectangle width="320" height="40" as="alternateBounds" />
          </mxGeometry>
        </mxCell>
        <mxCell id="MPrAv_WxjmN06zbMls3C-78" style="shape=partialRectangle;collapsible=0;dropTarget=0;pointerEvents=0;fillColor=none;top=0;left=0;bottom=0;right=0;points=[[0,0.5],[1,0.5]];portConstraint=eastwest;fontSize=18;strokeColor=default;" parent="MPrAv_WxjmN06zbMls3C-53" vertex="1">
          <mxGeometry y="320" width="480" height="40" as="geometry" />
        </mxCell>
        <mxCell id="MPrAv_WxjmN06zbMls3C-79" value="ZONE_vmfa[3]" style="shape=partialRectangle;html=1;whiteSpace=wrap;connectable=0;overflow=hidden;fillColor=none;top=0;left=0;bottom=0;right=0;pointerEvents=1;fontSize=18;strokeColor=default;align=left;" parent="MPrAv_WxjmN06zbMls3C-78" vertex="1">
          <mxGeometry width="160" height="40" as="geometry">
            <mxRectangle width="160" height="40" as="alternateBounds" />
          </mxGeometry>
        </mxCell>
        <mxCell id="MPrAv_WxjmN06zbMls3C-80" value="&lt;span&gt;0&lt;/span&gt;" style="shape=partialRectangle;html=1;whiteSpace=wrap;connectable=0;overflow=hidden;fillColor=none;top=0;left=0;bottom=0;right=0;pointerEvents=1;fontSize=18;strokeColor=default;align=center;" parent="MPrAv_WxjmN06zbMls3C-78" vertex="1">
          <mxGeometry x="160" width="320" height="40" as="geometry">
            <mxRectangle width="320" height="40" as="alternateBounds" />
          </mxGeometry>
        </mxCell>
        <mxCell id="MPrAv_WxjmN06zbMls3C-81" style="shape=partialRectangle;collapsible=0;dropTarget=0;pointerEvents=0;fillColor=none;top=0;left=0;bottom=0;right=0;points=[[0,0.5],[1,0.5]];portConstraint=eastwest;fontSize=18;strokeColor=default;" parent="MPrAv_WxjmN06zbMls3C-53" vertex="1">
          <mxGeometry y="360" width="480" height="40" as="geometry" />
        </mxCell>
        <mxCell id="MPrAv_WxjmN06zbMls3C-82" value="ZONE_vmfa[4]" style="shape=partialRectangle;html=1;whiteSpace=wrap;connectable=0;overflow=hidden;fillColor=none;top=0;left=0;bottom=0;right=0;pointerEvents=1;fontSize=18;strokeColor=default;align=left;" parent="MPrAv_WxjmN06zbMls3C-81" vertex="1">
          <mxGeometry width="160" height="40" as="geometry">
            <mxRectangle width="160" height="40" as="alternateBounds" />
          </mxGeometry>
        </mxCell>
        <mxCell id="MPrAv_WxjmN06zbMls3C-83" value="&lt;span&gt;0&lt;/span&gt;" style="shape=partialRectangle;html=1;whiteSpace=wrap;connectable=0;overflow=hidden;fillColor=none;top=0;left=0;bottom=0;right=0;pointerEvents=1;fontSize=18;strokeColor=default;align=center;" parent="MPrAv_WxjmN06zbMls3C-81" vertex="1">
          <mxGeometry x="160" width="320" height="40" as="geometry">
            <mxRectangle width="320" height="40" as="alternateBounds" />
          </mxGeometry>
        </mxCell>
        <mxCell id="MPrAv_WxjmN06zbMls3C-84" style="shape=partialRectangle;collapsible=0;dropTarget=0;pointerEvents=0;fillColor=none;top=0;left=0;bottom=0;right=0;points=[[0,0.5],[1,0.5]];portConstraint=eastwest;fontSize=18;strokeColor=default;" parent="MPrAv_WxjmN06zbMls3C-53" vertex="1">
          <mxGeometry y="400" width="480" height="40" as="geometry" />
        </mxCell>
        <mxCell id="MPrAv_WxjmN06zbMls3C-85" value="ZONE_vmfa[5]" style="shape=partialRectangle;html=1;whiteSpace=wrap;connectable=0;overflow=hidden;fillColor=none;top=0;left=0;bottom=0;right=0;pointerEvents=1;fontSize=18;strokeColor=default;align=left;" parent="MPrAv_WxjmN06zbMls3C-84" vertex="1">
          <mxGeometry width="160" height="40" as="geometry">
            <mxRectangle width="160" height="40" as="alternateBounds" />
          </mxGeometry>
        </mxCell>
        <mxCell id="MPrAv_WxjmN06zbMls3C-86" value="&lt;span&gt;0&lt;/span&gt;" style="shape=partialRectangle;html=1;whiteSpace=wrap;connectable=0;overflow=hidden;fillColor=none;top=0;left=0;bottom=0;right=0;pointerEvents=1;fontSize=18;strokeColor=default;align=center;" parent="MPrAv_WxjmN06zbMls3C-84" vertex="1">
          <mxGeometry x="160" width="320" height="40" as="geometry">
            <mxRectangle width="320" height="40" as="alternateBounds" />
          </mxGeometry>
        </mxCell>
        <mxCell id="MPrAv_WxjmN06zbMls3C-87" style="shape=partialRectangle;collapsible=0;dropTarget=0;pointerEvents=0;fillColor=none;top=0;left=0;bottom=0;right=0;points=[[0,0.5],[1,0.5]];portConstraint=eastwest;fontSize=18;strokeColor=default;" parent="MPrAv_WxjmN06zbMls3C-53" vertex="1">
          <mxGeometry y="440" width="480" height="40" as="geometry" />
        </mxCell>
        <mxCell id="MPrAv_WxjmN06zbMls3C-88" value="ZONE_vmfa[6]" style="shape=partialRectangle;html=1;whiteSpace=wrap;connectable=0;overflow=hidden;fillColor=none;top=0;left=0;bottom=0;right=0;pointerEvents=1;fontSize=18;strokeColor=default;align=left;" parent="MPrAv_WxjmN06zbMls3C-87" vertex="1">
          <mxGeometry width="160" height="40" as="geometry">
            <mxRectangle width="160" height="40" as="alternateBounds" />
          </mxGeometry>
        </mxCell>
        <mxCell id="MPrAv_WxjmN06zbMls3C-89" value="&lt;span&gt;0&lt;/span&gt;" style="shape=partialRectangle;html=1;whiteSpace=wrap;connectable=0;overflow=hidden;fillColor=none;top=0;left=0;bottom=0;right=0;pointerEvents=1;fontSize=18;strokeColor=default;align=center;" parent="MPrAv_WxjmN06zbMls3C-87" vertex="1">
          <mxGeometry x="160" width="320" height="40" as="geometry">
            <mxRectangle width="320" height="40" as="alternateBounds" />
          </mxGeometry>
        </mxCell>
        <mxCell id="MPrAv_WxjmN06zbMls3C-90" style="shape=partialRectangle;collapsible=0;dropTarget=0;pointerEvents=0;fillColor=none;top=0;left=0;bottom=0;right=0;points=[[0,0.5],[1,0.5]];portConstraint=eastwest;fontSize=18;strokeColor=default;" parent="MPrAv_WxjmN06zbMls3C-53" vertex="1">
          <mxGeometry y="480" width="480" height="40" as="geometry" />
        </mxCell>
        <mxCell id="MPrAv_WxjmN06zbMls3C-91" value="&lt;span&gt;ZONE_vmfa[7]&lt;/span&gt;" style="shape=partialRectangle;html=1;whiteSpace=wrap;connectable=0;overflow=hidden;fillColor=none;top=0;left=0;bottom=0;right=0;pointerEvents=1;fontSize=18;strokeColor=default;align=left;" parent="MPrAv_WxjmN06zbMls3C-90" vertex="1">
          <mxGeometry width="160" height="40" as="geometry">
            <mxRectangle width="160" height="40" as="alternateBounds" />
          </mxGeometry>
        </mxCell>
        <mxCell id="MPrAv_WxjmN06zbMls3C-92" value="&lt;span&gt;0&lt;/span&gt;" style="shape=partialRectangle;html=1;whiteSpace=wrap;connectable=0;overflow=hidden;fillColor=none;top=0;left=0;bottom=0;right=0;pointerEvents=1;fontSize=18;strokeColor=default;align=center;" parent="MPrAv_WxjmN06zbMls3C-90" vertex="1">
          <mxGeometry x="160" width="320" height="40" as="geometry">
            <mxRectangle width="320" height="40" as="alternateBounds" />
          </mxGeometry>
        </mxCell>
        <mxCell id="MPrAv_WxjmN06zbMls3C-93" style="shape=partialRectangle;collapsible=0;dropTarget=0;pointerEvents=0;fillColor=none;top=0;left=0;bottom=0;right=0;points=[[0,0.5],[1,0.5]];portConstraint=eastwest;fontSize=18;strokeColor=default;" parent="MPrAv_WxjmN06zbMls3C-53" vertex="1">
          <mxGeometry y="520" width="480" height="40" as="geometry" />
        </mxCell>
        <mxCell id="MPrAv_WxjmN06zbMls3C-94" value="..." style="shape=partialRectangle;html=1;whiteSpace=wrap;connectable=0;overflow=hidden;fillColor=none;top=0;left=0;bottom=0;right=0;pointerEvents=1;fontSize=18;strokeColor=default;align=left;" parent="MPrAv_WxjmN06zbMls3C-93" vertex="1">
          <mxGeometry width="160" height="40" as="geometry">
            <mxRectangle width="160" height="40" as="alternateBounds" />
          </mxGeometry>
        </mxCell>
        <mxCell id="MPrAv_WxjmN06zbMls3C-95" value="&lt;span&gt;0&lt;/span&gt;" style="shape=partialRectangle;html=1;whiteSpace=wrap;connectable=0;overflow=hidden;fillColor=none;top=0;left=0;bottom=0;right=0;pointerEvents=1;fontSize=18;strokeColor=default;align=center;" parent="MPrAv_WxjmN06zbMls3C-93" vertex="1">
          <mxGeometry x="160" width="320" height="40" as="geometry">
            <mxRectangle width="320" height="40" as="alternateBounds" />
          </mxGeometry>
        </mxCell>
        <mxCell id="MPrAv_WxjmN06zbMls3C-96" style="shape=partialRectangle;collapsible=0;dropTarget=0;pointerEvents=0;fillColor=none;top=0;left=0;bottom=0;right=0;points=[[0,0.5],[1,0.5]];portConstraint=eastwest;fontSize=18;strokeColor=default;" parent="MPrAv_WxjmN06zbMls3C-53" vertex="1">
          <mxGeometry y="560" width="480" height="40" as="geometry" />
        </mxCell>
        <mxCell id="MPrAv_WxjmN06zbMls3C-97" value="ZONE_vmfa[10]" style="shape=partialRectangle;html=1;whiteSpace=wrap;connectable=0;overflow=hidden;fillColor=#008a00;top=0;left=0;bottom=0;right=0;pointerEvents=1;fontSize=18;strokeColor=#005700;align=left;fontColor=#ffffff;" parent="MPrAv_WxjmN06zbMls3C-96" vertex="1">
          <mxGeometry width="160" height="40" as="geometry">
            <mxRectangle width="160" height="40" as="alternateBounds" />
          </mxGeometry>
        </mxCell>
        <mxCell id="MPrAv_WxjmN06zbMls3C-98" value="" style="shape=partialRectangle;html=1;whiteSpace=wrap;connectable=0;overflow=hidden;fillColor=none;top=0;left=0;bottom=0;right=0;pointerEvents=1;fontSize=18;strokeColor=default;align=center;" parent="MPrAv_WxjmN06zbMls3C-96" vertex="1">
          <mxGeometry x="160" width="320" height="40" as="geometry">
            <mxRectangle width="320" height="40" as="alternateBounds" />
          </mxGeometry>
        </mxCell>
        <mxCell id="MPrAv_WxjmN06zbMls3C-99" value="&lt;b&gt;&lt;font style=&quot;font-size: 21px&quot;&gt;虚拟空间地址：0x20000000，size:1GB, page大小：16KB，忽略_G_ulVmmSwitchAddr预留&lt;/font&gt;&lt;/b&gt;" style="text;html=1;strokeColor=none;fillColor=none;align=center;verticalAlign=middle;whiteSpace=wrap;rounded=0;fontSize=18;opacity=70;" parent="1" vertex="1">
          <mxGeometry x="260" y="600" width="950" height="30" as="geometry" />
        </mxCell>
        <mxCell id="MPrAv_WxjmN06zbMls3C-100" value="&lt;b&gt;pvmzone&lt;/b&gt;" style="text;whiteSpace=wrap;html=1;fontSize=18;" parent="1" vertex="1">
          <mxGeometry x="950" y="-370" width="180" height="40" as="geometry" />
        </mxCell>
        <mxCell id="MPrAv_WxjmN06zbMls3C-101" style="edgeStyle=orthogonalEdgeStyle;rounded=0;orthogonalLoop=1;jettySize=auto;html=1;entryX=1.001;entryY=0.104;entryDx=0;entryDy=0;fontSize=18;exitX=1;exitY=0.5;exitDx=0;exitDy=0;entryPerimeter=0;strokeWidth=2;" parent="1" source="MPrAv_WxjmN06zbMls3C-33" target="MPrAv_WxjmN06zbMls3C-57" edge="1">
          <mxGeometry relative="1" as="geometry">
            <Array as="points">
              <mxPoint x="2400" y="160" />
              <mxPoint x="2400" y="-286" />
            </Array>
          </mxGeometry>
        </mxCell>
        <mxCell id="MPrAv_WxjmN06zbMls3C-102" style="edgeStyle=orthogonalEdgeStyle;rounded=0;orthogonalLoop=1;jettySize=auto;html=1;entryX=0.002;entryY=0.037;entryDx=0;entryDy=0;fontSize=18;entryPerimeter=0;strokeWidth=2;" parent="1" source="MPrAv_WxjmN06zbMls3C-141" target="MPrAv_WxjmN06zbMls3C-57" edge="1">
          <mxGeometry relative="1" as="geometry" />
        </mxCell>
        <mxCell id="MPrAv_WxjmN06zbMls3C-103" style="edgeStyle=orthogonalEdgeStyle;rounded=0;orthogonalLoop=1;jettySize=auto;html=1;fontSize=18;strokeWidth=2;exitX=1;exitY=0.5;exitDx=0;exitDy=0;" parent="1" source="MPrAv_WxjmN06zbMls3C-39" edge="1">
          <mxGeometry relative="1" as="geometry">
            <mxPoint x="2227" y="280" as="targetPoint" />
            <mxPoint x="2237" y="240" as="sourcePoint" />
            <Array as="points">
              <mxPoint x="2467" y="240" />
              <mxPoint x="2467" y="280" />
            </Array>
          </mxGeometry>
        </mxCell>
        <mxCell id="MPrAv_WxjmN06zbMls3C-104" value="指针指向物理页面hash表" style="text;html=1;strokeColor=none;fillColor=none;align=center;verticalAlign=middle;whiteSpace=wrap;rounded=0;fontSize=18;opacity=70;" parent="1" vertex="1">
          <mxGeometry x="2238" y="295" width="230" height="30" as="geometry" />
        </mxCell>
        <mxCell id="MPrAv_WxjmN06zbMls3C-105" value="" style="shape=table;startSize=0;container=1;collapsible=0;childLayout=tableLayout;fontSize=18;strokeColor=default;fillColor=none;gradientColor=none;align=center;opacity=70;" parent="1" vertex="1">
          <mxGeometry x="940" y="430" width="480" height="120" as="geometry" />
        </mxCell>
        <mxCell id="MPrAv_WxjmN06zbMls3C-106" value="" style="shape=partialRectangle;collapsible=0;dropTarget=0;pointerEvents=0;fillColor=none;top=0;left=0;bottom=0;right=0;points=[[0,0.5],[1,0.5]];portConstraint=eastwest;fontSize=18;strokeColor=default;align=center;opacity=70;" parent="MPrAv_WxjmN06zbMls3C-105" vertex="1">
          <mxGeometry width="480" height="40" as="geometry" />
        </mxCell>
        <mxCell id="MPrAv_WxjmN06zbMls3C-107" value="成员" style="shape=partialRectangle;html=1;whiteSpace=wrap;connectable=0;overflow=hidden;fillColor=#bac8d3;top=0;left=0;bottom=0;right=0;pointerEvents=1;fontSize=18;strokeColor=#23445d;align=center;" parent="MPrAv_WxjmN06zbMls3C-106" vertex="1">
          <mxGeometry width="240" height="40" as="geometry">
            <mxRectangle width="240" height="40" as="alternateBounds" />
          </mxGeometry>
        </mxCell>
        <mxCell id="MPrAv_WxjmN06zbMls3C-108" value="值" style="shape=partialRectangle;html=1;whiteSpace=wrap;connectable=0;overflow=hidden;fillColor=#bac8d3;top=0;left=0;bottom=0;right=0;pointerEvents=1;fontSize=18;strokeColor=#23445d;align=center;" parent="MPrAv_WxjmN06zbMls3C-106" vertex="1">
          <mxGeometry x="240" width="240" height="40" as="geometry">
            <mxRectangle width="240" height="40" as="alternateBounds" />
          </mxGeometry>
        </mxCell>
        <mxCell id="MPrAv_WxjmN06zbMls3C-109" value="" style="shape=partialRectangle;collapsible=0;dropTarget=0;pointerEvents=0;fillColor=none;top=0;left=0;bottom=0;right=0;points=[[0,0.5],[1,0.5]];portConstraint=eastwest;fontSize=18;strokeColor=default;align=center;opacity=70;" parent="MPrAv_WxjmN06zbMls3C-105" vertex="1">
          <mxGeometry y="40" width="480" height="40" as="geometry" />
        </mxCell>
        <mxCell id="MPrAv_WxjmN06zbMls3C-110" value="FA_lineFreeHeader" style="shape=partialRectangle;html=1;whiteSpace=wrap;connectable=0;overflow=hidden;fillColor=#008a00;top=0;left=0;bottom=0;right=0;pointerEvents=1;fontSize=18;strokeColor=#005700;align=center;fontColor=#ffffff;" parent="MPrAv_WxjmN06zbMls3C-109" vertex="1">
          <mxGeometry width="240" height="40" as="geometry">
            <mxRectangle width="240" height="40" as="alternateBounds" />
          </mxGeometry>
        </mxCell>
        <mxCell id="MPrAv_WxjmN06zbMls3C-111" value="指针" style="shape=partialRectangle;html=1;whiteSpace=wrap;connectable=0;overflow=hidden;fillColor=none;top=0;left=0;bottom=0;right=0;pointerEvents=1;fontSize=18;strokeColor=default;align=center;opacity=70;" parent="MPrAv_WxjmN06zbMls3C-109" vertex="1">
          <mxGeometry x="240" width="240" height="40" as="geometry">
            <mxRectangle width="240" height="40" as="alternateBounds" />
          </mxGeometry>
        </mxCell>
        <mxCell id="MPrAv_WxjmN06zbMls3C-112" value="" style="shape=partialRectangle;collapsible=0;dropTarget=0;pointerEvents=0;fillColor=none;top=0;left=0;bottom=0;right=0;points=[[0,0.5],[1,0.5]];portConstraint=eastwest;fontSize=18;strokeColor=default;align=center;opacity=70;" parent="MPrAv_WxjmN06zbMls3C-105" vertex="1">
          <mxGeometry y="80" width="480" height="40" as="geometry" />
        </mxCell>
        <mxCell id="MPrAv_WxjmN06zbMls3C-113" value="FA_ulCount" style="shape=partialRectangle;html=1;whiteSpace=wrap;connectable=0;overflow=hidden;fillColor=#008a00;top=0;left=0;bottom=0;right=0;pointerEvents=1;fontSize=18;strokeColor=#005700;align=center;fontColor=#ffffff;" parent="MPrAv_WxjmN06zbMls3C-112" vertex="1">
          <mxGeometry width="240" height="40" as="geometry">
            <mxRectangle width="240" height="40" as="alternateBounds" />
          </mxGeometry>
        </mxCell>
        <mxCell id="MPrAv_WxjmN06zbMls3C-114" value="1" style="shape=partialRectangle;html=1;whiteSpace=wrap;connectable=0;overflow=hidden;fillColor=none;top=0;left=0;bottom=0;right=0;pointerEvents=1;fontSize=18;strokeColor=default;align=center;opacity=70;" parent="MPrAv_WxjmN06zbMls3C-112" vertex="1">
          <mxGeometry x="240" width="240" height="40" as="geometry">
            <mxRectangle width="240" height="40" as="alternateBounds" />
          </mxGeometry>
        </mxCell>
        <mxCell id="MPrAv_WxjmN06zbMls3C-115" value="LW_VMM_FREEAREA" style="text;whiteSpace=wrap;html=1;fontSize=18;" parent="1" vertex="1">
          <mxGeometry x="940" y="390" width="210" height="40" as="geometry" />
        </mxCell>
        <mxCell id="MPrAv_WxjmN06zbMls3C-116" style="edgeStyle=orthogonalEdgeStyle;rounded=0;orthogonalLoop=1;jettySize=auto;html=1;fontSize=18;strokeWidth=2;" parent="1" edge="1">
          <mxGeometry relative="1" as="geometry">
            <mxPoint x="947" y="260" as="sourcePoint" />
            <mxPoint x="941" y="478.0344827586214" as="targetPoint" />
            <Array as="points">
              <mxPoint x="920" y="260" />
              <mxPoint x="920" y="478" />
            </Array>
          </mxGeometry>
        </mxCell>
        <mxCell id="MPrAv_WxjmN06zbMls3C-117" value="__pageFreeHashIndex(pvmpage-&gt;PAGE_ulCount);" style="text;whiteSpace=wrap;html=1;fontSize=18;" parent="1" vertex="1">
          <mxGeometry x="510" y="207" width="420" height="40" as="geometry" />
        </mxCell>
        <mxCell id="MPrAv_WxjmN06zbMls3C-118" value="" style="endArrow=classic;html=1;rounded=0;fontSize=18;entryX=0;entryY=0;entryDx=0;entryDy=0;entryPerimeter=0;strokeWidth=2;" parent="1" edge="1">
          <mxGeometry width="50" height="50" relative="1" as="geometry">
            <mxPoint x="500" y="243" as="sourcePoint" />
            <mxPoint x="950" y="243" as="targetPoint" />
          </mxGeometry>
        </mxCell>
        <mxCell id="MPrAv_WxjmN06zbMls3C-119" value="__pageInitLink(pvmpage)" style="text;whiteSpace=wrap;html=1;fontSize=18;" parent="1" vertex="1">
          <mxGeometry x="2238" y="200" width="230" height="40" as="geometry" />
        </mxCell>
        <mxCell id="MPrAv_WxjmN06zbMls3C-120" value="" style="shape=curlyBracket;whiteSpace=wrap;html=1;rounded=1;fontSize=18;strokeColor=#6F0000;fillColor=#a20025;align=center;opacity=70;dashed=1;strokeWidth=2;fontColor=#ffffff;" parent="1" vertex="1">
          <mxGeometry x="910" y="-130" width="30" height="390" as="geometry" />
        </mxCell>
        <mxCell id="MPrAv_WxjmN06zbMls3C-121" value="&lt;b&gt;空闲页面hash表&lt;/b&gt;" style="text;html=1;strokeColor=#C73500;fillColor=#fa6800;align=center;verticalAlign=middle;whiteSpace=wrap;rounded=0;dashed=1;fontSize=18;opacity=70;fontColor=#000000;" parent="1" vertex="1">
          <mxGeometry x="770" y="50" width="140" height="30" as="geometry" />
        </mxCell>
        <mxCell id="MPrAv_WxjmN06zbMls3C-122" value="" style="shape=curlyBracket;whiteSpace=wrap;html=1;rounded=1;dashed=1;fontSize=18;strokeColor=#82b366;strokeWidth=2;fillColor=#d5e8d4;align=center;opacity=70;size=0.5;" parent="1" vertex="1">
          <mxGeometry x="1660" y="260" width="28" height="120" as="geometry" />
        </mxCell>
        <mxCell id="MPrAv_WxjmN06zbMls3C-123" value="&lt;b&gt;物理页面 hash 链表&lt;/b&gt;" style="text;html=1;strokeColor=#82b366;fillColor=#d5e8d4;align=center;verticalAlign=middle;whiteSpace=wrap;rounded=0;dashed=1;fontSize=18;opacity=70;gradientColor=#97d077;" parent="1" vertex="1">
          <mxGeometry x="1480" y="305" width="174" height="30" as="geometry" />
        </mxCell>
        <mxCell id="MPrAv_WxjmN06zbMls3C-124" value="" style="shape=table;startSize=0;container=1;collapsible=0;childLayout=tableLayout;fontSize=18;strokeColor=default;fillColor=none;gradientColor=none;align=center;" parent="1" vertex="1">
          <mxGeometry x="1700" y="430" width="530" height="120" as="geometry" />
        </mxCell>
        <mxCell id="MPrAv_WxjmN06zbMls3C-125" value="" style="shape=partialRectangle;collapsible=0;dropTarget=0;pointerEvents=0;fillColor=none;top=0;left=0;bottom=0;right=0;points=[[0,0.5],[1,0.5]];portConstraint=eastwest;fontSize=18;strokeColor=default;align=center;opacity=70;" parent="MPrAv_WxjmN06zbMls3C-124" vertex="1">
          <mxGeometry width="530" height="40" as="geometry" />
        </mxCell>
        <mxCell id="MPrAv_WxjmN06zbMls3C-126" value="成员" style="shape=partialRectangle;html=1;whiteSpace=wrap;connectable=0;overflow=hidden;fillColor=#bac8d3;top=0;left=0;bottom=0;right=0;pointerEvents=1;fontSize=18;strokeColor=#23445d;align=center;" parent="MPrAv_WxjmN06zbMls3C-125" vertex="1">
          <mxGeometry width="265" height="40" as="geometry">
            <mxRectangle width="265" height="40" as="alternateBounds" />
          </mxGeometry>
        </mxCell>
        <mxCell id="MPrAv_WxjmN06zbMls3C-127" value="值" style="shape=partialRectangle;html=1;whiteSpace=wrap;connectable=0;overflow=hidden;fillColor=#bac8d3;top=0;left=0;bottom=0;right=0;pointerEvents=1;fontSize=18;strokeColor=#23445d;align=center;" parent="MPrAv_WxjmN06zbMls3C-125" vertex="1">
          <mxGeometry x="265" width="265" height="40" as="geometry">
            <mxRectangle width="265" height="40" as="alternateBounds" />
          </mxGeometry>
        </mxCell>
        <mxCell id="MPrAv_WxjmN06zbMls3C-128" value="" style="shape=partialRectangle;collapsible=0;dropTarget=0;pointerEvents=0;fillColor=none;top=0;left=0;bottom=0;right=0;points=[[0,0.5],[1,0.5]];portConstraint=eastwest;fontSize=18;strokeColor=default;align=center;opacity=70;" parent="MPrAv_WxjmN06zbMls3C-124" vertex="1">
          <mxGeometry y="40" width="530" height="40" as="geometry" />
        </mxCell>
        <mxCell id="MPrAv_WxjmN06zbMls3C-129" value="LINE_plistNext" style="shape=partialRectangle;html=1;whiteSpace=wrap;connectable=0;overflow=hidden;fillColor=#6a00ff;top=0;left=0;bottom=0;right=0;pointerEvents=1;fontSize=18;strokeColor=#3700CC;align=center;fontColor=#ffffff;" parent="MPrAv_WxjmN06zbMls3C-128" vertex="1">
          <mxGeometry width="265" height="40" as="geometry">
            <mxRectangle width="265" height="40" as="alternateBounds" />
          </mxGeometry>
        </mxCell>
        <mxCell id="MPrAv_WxjmN06zbMls3C-130" value="NULL" style="shape=partialRectangle;html=1;whiteSpace=wrap;connectable=0;overflow=hidden;fillColor=none;top=0;left=0;bottom=0;right=0;pointerEvents=1;fontSize=18;strokeColor=default;align=center;opacity=70;" parent="MPrAv_WxjmN06zbMls3C-128" vertex="1">
          <mxGeometry x="265" width="265" height="40" as="geometry">
            <mxRectangle width="265" height="40" as="alternateBounds" />
          </mxGeometry>
        </mxCell>
        <mxCell id="MPrAv_WxjmN06zbMls3C-131" value="" style="shape=partialRectangle;collapsible=0;dropTarget=0;pointerEvents=0;fillColor=none;top=0;left=0;bottom=0;right=0;points=[[0,0.5],[1,0.5]];portConstraint=eastwest;fontSize=18;strokeColor=default;align=center;opacity=70;" parent="MPrAv_WxjmN06zbMls3C-124" vertex="1">
          <mxGeometry y="80" width="530" height="40" as="geometry" />
        </mxCell>
        <mxCell id="MPrAv_WxjmN06zbMls3C-132" value="LINE_plistPrev" style="shape=partialRectangle;html=1;whiteSpace=wrap;connectable=0;overflow=hidden;fillColor=#6a00ff;top=0;left=0;bottom=0;right=0;pointerEvents=1;fontSize=18;strokeColor=#3700CC;align=center;fontColor=#ffffff;" parent="MPrAv_WxjmN06zbMls3C-131" vertex="1">
          <mxGeometry width="265" height="40" as="geometry">
            <mxRectangle width="265" height="40" as="alternateBounds" />
          </mxGeometry>
        </mxCell>
        <mxCell id="MPrAv_WxjmN06zbMls3C-133" value="NULL" style="shape=partialRectangle;html=1;whiteSpace=wrap;connectable=0;overflow=hidden;fillColor=none;top=0;left=0;bottom=0;right=0;pointerEvents=1;fontSize=18;strokeColor=default;align=center;opacity=70;" parent="MPrAv_WxjmN06zbMls3C-131" vertex="1">
          <mxGeometry x="265" width="265" height="40" as="geometry">
            <mxRectangle width="265" height="40" as="alternateBounds" />
          </mxGeometry>
        </mxCell>
        <mxCell id="MPrAv_WxjmN06zbMls3C-134" value="&lt;b&gt;LW_LIST_LINE&lt;/b&gt;" style="text;whiteSpace=wrap;html=1;fontSize=18;" parent="1" vertex="1">
          <mxGeometry x="1700" y="399" width="210" height="40" as="geometry" />
        </mxCell>
        <mxCell id="MPrAv_WxjmN06zbMls3C-135" value="" style="edgeStyle=elbowEdgeStyle;elbow=horizontal;endArrow=classic;html=1;rounded=0;fontSize=18;strokeWidth=2;exitX=1.003;exitY=0.117;exitDx=0;exitDy=0;exitPerimeter=0;" parent="1" source="MPrAv_WxjmN06zbMls3C-9" edge="1">
          <mxGeometry width="50" height="50" relative="1" as="geometry">
            <mxPoint x="2580" y="-120" as="sourcePoint" />
            <mxPoint x="2230" y="469" as="targetPoint" />
            <Array as="points">
              <mxPoint x="2520" y="150" />
              <mxPoint x="2630" y="170" />
            </Array>
          </mxGeometry>
        </mxCell>
        <mxCell id="MPrAv_WxjmN06zbMls3C-136" value="&lt;b&gt;LW_VMM_ZONE&lt;/b&gt;" style="text;html=1;strokeColor=none;fillColor=none;align=center;verticalAlign=middle;whiteSpace=wrap;rounded=0;dashed=1;fontSize=21;" parent="1" vertex="1">
          <mxGeometry x="1220" y="-450" width="190" height="30" as="geometry" />
        </mxCell>
        <mxCell id="MPrAv_WxjmN06zbMls3C-137" value="&lt;b&gt;LW_VMM_PAGE&lt;/b&gt;" style="text;whiteSpace=wrap;html=1;fontSize=21;" parent="1" vertex="1">
          <mxGeometry x="1698" y="-450" width="180" height="40" as="geometry" />
        </mxCell>
        <mxCell id="MPrAv_WxjmN06zbMls3C-138" value="" style="shape=table;startSize=0;container=1;collapsible=0;childLayout=tableLayout;fontSize=18;strokeColor=default;fillColor=none;gradientColor=none;align=center;opacity=70;" parent="1" vertex="1">
          <mxGeometry x="310" y="-350" width="440" height="360" as="geometry" />
        </mxCell>
        <mxCell id="MPrAv_WxjmN06zbMls3C-139" value="" style="shape=partialRectangle;collapsible=0;dropTarget=0;pointerEvents=0;fillColor=none;top=0;left=0;bottom=0;right=0;points=[[0,0.5],[1,0.5]];portConstraint=eastwest;fontSize=18;strokeColor=default;align=center;opacity=70;" parent="MPrAv_WxjmN06zbMls3C-138" vertex="1">
          <mxGeometry width="440" height="40" as="geometry" />
        </mxCell>
        <mxCell id="MPrAv_WxjmN06zbMls3C-140" value="_G_vmzoneVirApp[LW_CFG_VMM_VIR_NUM]" style="shape=partialRectangle;html=1;whiteSpace=wrap;connectable=0;overflow=hidden;fillColor=#bac8d3;top=0;left=0;bottom=0;right=0;pointerEvents=1;fontSize=18;strokeColor=#23445d;align=center;opacity=70;" parent="MPrAv_WxjmN06zbMls3C-139" vertex="1">
          <mxGeometry width="440" height="40" as="geometry">
            <mxRectangle width="440" height="40" as="alternateBounds" />
          </mxGeometry>
        </mxCell>
        <mxCell id="MPrAv_WxjmN06zbMls3C-141" value="" style="shape=partialRectangle;collapsible=0;dropTarget=0;pointerEvents=0;fillColor=none;top=0;left=0;bottom=0;right=0;points=[[0,0.5],[1,0.5]];portConstraint=eastwest;fontSize=18;strokeColor=default;align=center;opacity=70;" parent="MPrAv_WxjmN06zbMls3C-138" vertex="1">
          <mxGeometry y="40" width="440" height="40" as="geometry" />
        </mxCell>
        <mxCell id="MPrAv_WxjmN06zbMls3C-142" value="0" style="shape=partialRectangle;html=1;whiteSpace=wrap;connectable=0;overflow=hidden;fillColor=none;top=0;left=0;bottom=0;right=0;pointerEvents=1;fontSize=18;strokeColor=default;align=center;opacity=70;" parent="MPrAv_WxjmN06zbMls3C-141" vertex="1">
          <mxGeometry width="440" height="40" as="geometry">
            <mxRectangle width="440" height="40" as="alternateBounds" />
          </mxGeometry>
        </mxCell>
        <mxCell id="MPrAv_WxjmN06zbMls3C-143" value="" style="shape=partialRectangle;collapsible=0;dropTarget=0;pointerEvents=0;fillColor=none;top=0;left=0;bottom=0;right=0;points=[[0,0.5],[1,0.5]];portConstraint=eastwest;fontSize=18;strokeColor=default;align=center;opacity=70;" parent="MPrAv_WxjmN06zbMls3C-138" vertex="1">
          <mxGeometry y="80" width="440" height="40" as="geometry" />
        </mxCell>
        <mxCell id="MPrAv_WxjmN06zbMls3C-144" value="1" style="shape=partialRectangle;html=1;whiteSpace=wrap;connectable=0;overflow=hidden;fillColor=none;top=0;left=0;bottom=0;right=0;pointerEvents=1;fontSize=18;strokeColor=default;align=center;opacity=70;" parent="MPrAv_WxjmN06zbMls3C-143" vertex="1">
          <mxGeometry width="440" height="40" as="geometry">
            <mxRectangle width="440" height="40" as="alternateBounds" />
          </mxGeometry>
        </mxCell>
        <mxCell id="MPrAv_WxjmN06zbMls3C-145" value="" style="shape=partialRectangle;collapsible=0;dropTarget=0;pointerEvents=0;fillColor=none;top=0;left=0;bottom=0;right=0;points=[[0,0.5],[1,0.5]];portConstraint=eastwest;fontSize=18;strokeColor=default;align=center;opacity=70;" parent="MPrAv_WxjmN06zbMls3C-138" vertex="1">
          <mxGeometry y="120" width="440" height="40" as="geometry" />
        </mxCell>
        <mxCell id="MPrAv_WxjmN06zbMls3C-146" value="2" style="shape=partialRectangle;html=1;whiteSpace=wrap;connectable=0;overflow=hidden;fillColor=none;top=0;left=0;bottom=0;right=0;pointerEvents=1;fontSize=18;strokeColor=default;align=center;opacity=70;" parent="MPrAv_WxjmN06zbMls3C-145" vertex="1">
          <mxGeometry width="440" height="40" as="geometry">
            <mxRectangle width="440" height="40" as="alternateBounds" />
          </mxGeometry>
        </mxCell>
        <mxCell id="MPrAv_WxjmN06zbMls3C-147" value="" style="shape=partialRectangle;collapsible=0;dropTarget=0;pointerEvents=0;fillColor=none;top=0;left=0;bottom=0;right=0;points=[[0,0.5],[1,0.5]];portConstraint=eastwest;fontSize=18;strokeColor=default;align=center;opacity=70;" parent="MPrAv_WxjmN06zbMls3C-138" vertex="1">
          <mxGeometry y="160" width="440" height="40" as="geometry" />
        </mxCell>
        <mxCell id="MPrAv_WxjmN06zbMls3C-148" value="3" style="shape=partialRectangle;html=1;whiteSpace=wrap;connectable=0;overflow=hidden;fillColor=none;top=0;left=0;bottom=0;right=0;pointerEvents=1;fontSize=18;strokeColor=default;align=center;opacity=70;" parent="MPrAv_WxjmN06zbMls3C-147" vertex="1">
          <mxGeometry width="440" height="40" as="geometry">
            <mxRectangle width="440" height="40" as="alternateBounds" />
          </mxGeometry>
        </mxCell>
        <mxCell id="MPrAv_WxjmN06zbMls3C-149" value="" style="shape=partialRectangle;collapsible=0;dropTarget=0;pointerEvents=0;fillColor=none;top=0;left=0;bottom=0;right=0;points=[[0,0.5],[1,0.5]];portConstraint=eastwest;fontSize=18;strokeColor=default;align=center;opacity=70;" parent="MPrAv_WxjmN06zbMls3C-138" vertex="1">
          <mxGeometry y="200" width="440" height="40" as="geometry" />
        </mxCell>
        <mxCell id="MPrAv_WxjmN06zbMls3C-150" value="4" style="shape=partialRectangle;html=1;whiteSpace=wrap;connectable=0;overflow=hidden;fillColor=none;top=0;left=0;bottom=0;right=0;pointerEvents=1;fontSize=18;strokeColor=default;align=center;opacity=70;" parent="MPrAv_WxjmN06zbMls3C-149" vertex="1">
          <mxGeometry width="440" height="40" as="geometry">
            <mxRectangle width="440" height="40" as="alternateBounds" />
          </mxGeometry>
        </mxCell>
        <mxCell id="MPrAv_WxjmN06zbMls3C-151" value="" style="shape=partialRectangle;collapsible=0;dropTarget=0;pointerEvents=0;fillColor=none;top=0;left=0;bottom=0;right=0;points=[[0,0.5],[1,0.5]];portConstraint=eastwest;fontSize=18;strokeColor=default;align=center;opacity=70;" parent="MPrAv_WxjmN06zbMls3C-138" vertex="1">
          <mxGeometry y="240" width="440" height="40" as="geometry" />
        </mxCell>
        <mxCell id="MPrAv_WxjmN06zbMls3C-152" value="5" style="shape=partialRectangle;html=1;whiteSpace=wrap;connectable=0;overflow=hidden;fillColor=none;top=0;left=0;bottom=0;right=0;pointerEvents=1;fontSize=18;strokeColor=default;align=center;opacity=70;" parent="MPrAv_WxjmN06zbMls3C-151" vertex="1">
          <mxGeometry width="440" height="40" as="geometry">
            <mxRectangle width="440" height="40" as="alternateBounds" />
          </mxGeometry>
        </mxCell>
        <mxCell id="MPrAv_WxjmN06zbMls3C-153" value="" style="shape=partialRectangle;collapsible=0;dropTarget=0;pointerEvents=0;fillColor=none;top=0;left=0;bottom=0;right=0;points=[[0,0.5],[1,0.5]];portConstraint=eastwest;fontSize=18;strokeColor=default;align=center;opacity=70;" parent="MPrAv_WxjmN06zbMls3C-138" vertex="1">
          <mxGeometry y="280" width="440" height="40" as="geometry" />
        </mxCell>
        <mxCell id="MPrAv_WxjmN06zbMls3C-154" value="6" style="shape=partialRectangle;html=1;whiteSpace=wrap;connectable=0;overflow=hidden;fillColor=none;top=0;left=0;bottom=0;right=0;pointerEvents=1;fontSize=18;strokeColor=default;align=center;opacity=70;" parent="MPrAv_WxjmN06zbMls3C-153" vertex="1">
          <mxGeometry width="440" height="40" as="geometry">
            <mxRectangle width="440" height="40" as="alternateBounds" />
          </mxGeometry>
        </mxCell>
        <mxCell id="MPrAv_WxjmN06zbMls3C-155" value="" style="shape=partialRectangle;collapsible=0;dropTarget=0;pointerEvents=0;fillColor=none;top=0;left=0;bottom=0;right=0;points=[[0,0.5],[1,0.5]];portConstraint=eastwest;fontSize=18;strokeColor=default;align=center;opacity=70;" parent="MPrAv_WxjmN06zbMls3C-138" vertex="1">
          <mxGeometry y="320" width="440" height="40" as="geometry" />
        </mxCell>
        <mxCell id="MPrAv_WxjmN06zbMls3C-156" value="7" style="shape=partialRectangle;html=1;whiteSpace=wrap;connectable=0;overflow=hidden;fillColor=none;top=0;left=0;bottom=0;right=0;pointerEvents=1;fontSize=18;strokeColor=default;align=center;opacity=70;" parent="MPrAv_WxjmN06zbMls3C-155" vertex="1">
          <mxGeometry width="440" height="40" as="geometry">
            <mxRectangle width="440" height="40" as="alternateBounds" />
          </mxGeometry>
        </mxCell>
        <mxCell id="MPrAv_WxjmN06zbMls3C-157" value="" style="shape=table;startSize=0;container=1;collapsible=0;childLayout=tableLayout;fontSize=18;strokeColor=default;fillColor=none;gradientColor=none;align=center;" parent="1" vertex="1">
          <mxGeometry x="1700" y="595" width="530" height="120" as="geometry" />
        </mxCell>
        <mxCell id="MPrAv_WxjmN06zbMls3C-158" value="" style="shape=partialRectangle;collapsible=0;dropTarget=0;pointerEvents=0;fillColor=none;top=0;left=0;bottom=0;right=0;points=[[0,0.5],[1,0.5]];portConstraint=eastwest;fontSize=18;strokeColor=default;align=center;opacity=70;" parent="MPrAv_WxjmN06zbMls3C-157" vertex="1">
          <mxGeometry width="530" height="40" as="geometry" />
        </mxCell>
        <mxCell id="MPrAv_WxjmN06zbMls3C-159" value="成员" style="shape=partialRectangle;html=1;whiteSpace=wrap;connectable=0;overflow=hidden;fillColor=#bac8d3;top=0;left=0;bottom=0;right=0;pointerEvents=1;fontSize=18;strokeColor=#23445d;align=center;" parent="MPrAv_WxjmN06zbMls3C-158" vertex="1">
          <mxGeometry width="265" height="40" as="geometry">
            <mxRectangle width="265" height="40" as="alternateBounds" />
          </mxGeometry>
        </mxCell>
        <mxCell id="MPrAv_WxjmN06zbMls3C-160" value="值" style="shape=partialRectangle;html=1;whiteSpace=wrap;connectable=0;overflow=hidden;fillColor=#bac8d3;top=0;left=0;bottom=0;right=0;pointerEvents=1;fontSize=18;strokeColor=#23445d;align=center;" parent="MPrAv_WxjmN06zbMls3C-158" vertex="1">
          <mxGeometry x="265" width="265" height="40" as="geometry">
            <mxRectangle width="265" height="40" as="alternateBounds" />
          </mxGeometry>
        </mxCell>
        <mxCell id="MPrAv_WxjmN06zbMls3C-161" value="" style="shape=partialRectangle;collapsible=0;dropTarget=0;pointerEvents=0;fillColor=none;top=0;left=0;bottom=0;right=0;points=[[0,0.5],[1,0.5]];portConstraint=eastwest;fontSize=18;strokeColor=default;align=center;opacity=70;" parent="MPrAv_WxjmN06zbMls3C-157" vertex="1">
          <mxGeometry y="40" width="530" height="40" as="geometry" />
        </mxCell>
        <mxCell id="MPrAv_WxjmN06zbMls3C-162" value="LINE_plistNext" style="shape=partialRectangle;html=1;whiteSpace=wrap;connectable=0;overflow=hidden;fillColor=#6a00ff;top=0;left=0;bottom=0;right=0;pointerEvents=1;fontSize=18;strokeColor=#3700CC;align=center;fontColor=#ffffff;" parent="MPrAv_WxjmN06zbMls3C-161" vertex="1">
          <mxGeometry width="265" height="40" as="geometry">
            <mxRectangle width="265" height="40" as="alternateBounds" />
          </mxGeometry>
        </mxCell>
        <mxCell id="MPrAv_WxjmN06zbMls3C-163" value="指针" style="shape=partialRectangle;html=1;whiteSpace=wrap;connectable=0;overflow=hidden;fillColor=none;top=0;left=0;bottom=0;right=0;pointerEvents=1;fontSize=18;strokeColor=default;align=center;opacity=70;" parent="MPrAv_WxjmN06zbMls3C-161" vertex="1">
          <mxGeometry x="265" width="265" height="40" as="geometry">
            <mxRectangle width="265" height="40" as="alternateBounds" />
          </mxGeometry>
        </mxCell>
        <mxCell id="MPrAv_WxjmN06zbMls3C-164" value="" style="shape=partialRectangle;collapsible=0;dropTarget=0;pointerEvents=0;fillColor=none;top=0;left=0;bottom=0;right=0;points=[[0,0.5],[1,0.5]];portConstraint=eastwest;fontSize=18;strokeColor=default;align=center;opacity=70;" parent="MPrAv_WxjmN06zbMls3C-157" vertex="1">
          <mxGeometry y="80" width="530" height="40" as="geometry" />
        </mxCell>
        <mxCell id="MPrAv_WxjmN06zbMls3C-165" value="LINE_plistPrev" style="shape=partialRectangle;html=1;whiteSpace=wrap;connectable=0;overflow=hidden;fillColor=#6a00ff;top=0;left=0;bottom=0;right=0;pointerEvents=1;fontSize=18;strokeColor=#3700CC;align=center;fontColor=#ffffff;" parent="MPrAv_WxjmN06zbMls3C-164" vertex="1">
          <mxGeometry width="265" height="40" as="geometry">
            <mxRectangle width="265" height="40" as="alternateBounds" />
          </mxGeometry>
        </mxCell>
        <mxCell id="MPrAv_WxjmN06zbMls3C-166" value="NULL" style="shape=partialRectangle;html=1;whiteSpace=wrap;connectable=0;overflow=hidden;fillColor=none;top=0;left=0;bottom=0;right=0;pointerEvents=1;fontSize=18;strokeColor=default;align=center;opacity=70;" parent="MPrAv_WxjmN06zbMls3C-164" vertex="1">
          <mxGeometry x="265" width="265" height="40" as="geometry">
            <mxRectangle width="265" height="40" as="alternateBounds" />
          </mxGeometry>
        </mxCell>
        <mxCell id="MPrAv_WxjmN06zbMls3C-167" style="edgeStyle=orthogonalEdgeStyle;rounded=0;orthogonalLoop=1;jettySize=auto;html=1;fontSize=18;fontColor=#000000;strokeWidth=2;entryX=1;entryY=0.5;entryDx=0;entryDy=0;" parent="1" source="MPrAv_WxjmN06zbMls3C-12" target="MPrAv_WxjmN06zbMls3C-158" edge="1">
          <mxGeometry relative="1" as="geometry">
            <mxPoint x="2270" y="580" as="targetPoint" />
            <Array as="points">
              <mxPoint x="2580" y="-120" />
              <mxPoint x="2580" y="615" />
            </Array>
          </mxGeometry>
        </mxCell>
        <mxCell id="MPrAv_WxjmN06zbMls3C-168" value="" style="shape=table;startSize=0;container=1;collapsible=0;childLayout=tableLayout;fontSize=18;strokeColor=default;fillColor=none;align=left;" parent="1" vertex="1">
          <mxGeometry x="2750" y="-220" width="530" height="600" as="geometry" />
        </mxCell>
        <mxCell id="MPrAv_WxjmN06zbMls3C-169" style="shape=partialRectangle;collapsible=0;dropTarget=0;pointerEvents=0;fillColor=none;top=0;left=0;bottom=0;right=0;points=[[0,0.5],[1,0.5]];portConstraint=eastwest;fontSize=18;strokeColor=default;" parent="MPrAv_WxjmN06zbMls3C-168" vertex="1">
          <mxGeometry width="530" height="40" as="geometry" />
        </mxCell>
        <mxCell id="MPrAv_WxjmN06zbMls3C-170" value="地址" style="shape=partialRectangle;html=1;whiteSpace=wrap;connectable=0;overflow=hidden;fillColor=#bac8d3;top=0;left=0;bottom=0;right=0;pointerEvents=1;fontSize=18;strokeColor=#23445d;align=center;" parent="MPrAv_WxjmN06zbMls3C-169" vertex="1">
          <mxGeometry width="240" height="40" as="geometry">
            <mxRectangle width="240" height="40" as="alternateBounds" />
          </mxGeometry>
        </mxCell>
        <mxCell id="MPrAv_WxjmN06zbMls3C-171" value="值" style="shape=partialRectangle;html=1;whiteSpace=wrap;connectable=0;overflow=hidden;fillColor=#bac8d3;top=0;left=0;bottom=0;right=0;pointerEvents=1;fontSize=18;strokeColor=#23445d;align=center;" parent="MPrAv_WxjmN06zbMls3C-169" vertex="1">
          <mxGeometry x="240" width="290" height="40" as="geometry">
            <mxRectangle width="290" height="40" as="alternateBounds" />
          </mxGeometry>
        </mxCell>
        <mxCell id="MPrAv_WxjmN06zbMls3C-172" value="" style="shape=partialRectangle;collapsible=0;dropTarget=0;pointerEvents=0;fillColor=none;top=0;left=0;bottom=0;right=0;points=[[0,0.5],[1,0.5]];portConstraint=eastwest;fontSize=18;strokeColor=default;" parent="MPrAv_WxjmN06zbMls3C-168" vertex="1">
          <mxGeometry y="40" width="530" height="40" as="geometry" />
        </mxCell>
        <mxCell id="MPrAv_WxjmN06zbMls3C-173" value="PAGE_lineFreeHash" style="shape=partialRectangle;html=1;whiteSpace=wrap;connectable=0;overflow=hidden;fillColor=#6a00ff;top=0;left=0;bottom=0;right=0;pointerEvents=1;fontSize=18;strokeColor=#3700CC;align=left;fontColor=#ffffff;" parent="MPrAv_WxjmN06zbMls3C-172" vertex="1">
          <mxGeometry width="240" height="40" as="geometry">
            <mxRectangle width="240" height="40" as="alternateBounds" />
          </mxGeometry>
        </mxCell>
        <mxCell id="MPrAv_WxjmN06zbMls3C-174" value="" style="shape=partialRectangle;html=1;whiteSpace=wrap;connectable=0;overflow=hidden;fillColor=none;top=0;left=0;bottom=0;right=0;pointerEvents=1;fontSize=18;strokeColor=default;align=center;" parent="MPrAv_WxjmN06zbMls3C-172" vertex="1">
          <mxGeometry x="240" width="290" height="40" as="geometry">
            <mxRectangle width="290" height="40" as="alternateBounds" />
          </mxGeometry>
        </mxCell>
        <mxCell id="MPrAv_WxjmN06zbMls3C-175" value="" style="shape=partialRectangle;collapsible=0;dropTarget=0;pointerEvents=0;fillColor=none;top=0;left=0;bottom=0;right=0;points=[[0,0.5],[1,0.5]];portConstraint=eastwest;fontSize=18;strokeColor=default;" parent="MPrAv_WxjmN06zbMls3C-168" vertex="1">
          <mxGeometry y="80" width="530" height="40" as="geometry" />
        </mxCell>
        <mxCell id="MPrAv_WxjmN06zbMls3C-176" value="PAGE_lineManage" style="shape=partialRectangle;html=1;whiteSpace=wrap;connectable=0;overflow=hidden;fillColor=none;top=0;left=0;bottom=0;right=0;pointerEvents=1;fontSize=18;strokeColor=default;align=left;" parent="MPrAv_WxjmN06zbMls3C-175" vertex="1">
          <mxGeometry width="240" height="40" as="geometry">
            <mxRectangle width="240" height="40" as="alternateBounds" />
          </mxGeometry>
        </mxCell>
        <mxCell id="MPrAv_WxjmN06zbMls3C-177" value="" style="shape=partialRectangle;html=1;whiteSpace=wrap;connectable=0;overflow=hidden;fillColor=none;top=0;left=0;bottom=0;right=0;pointerEvents=1;fontSize=18;strokeColor=default;align=center;" parent="MPrAv_WxjmN06zbMls3C-175" vertex="1">
          <mxGeometry x="240" width="290" height="40" as="geometry">
            <mxRectangle width="290" height="40" as="alternateBounds" />
          </mxGeometry>
        </mxCell>
        <mxCell id="MPrAv_WxjmN06zbMls3C-178" value="" style="shape=partialRectangle;collapsible=0;dropTarget=0;pointerEvents=0;fillColor=none;top=0;left=0;bottom=0;right=0;points=[[0,0.5],[1,0.5]];portConstraint=eastwest;fontSize=18;strokeColor=default;" parent="MPrAv_WxjmN06zbMls3C-168" vertex="1">
          <mxGeometry y="120" width="530" height="40" as="geometry" />
        </mxCell>
        <mxCell id="MPrAv_WxjmN06zbMls3C-179" value="PAGE_trbnNode" style="shape=partialRectangle;html=1;whiteSpace=wrap;connectable=0;overflow=hidden;fillColor=none;top=0;left=0;bottom=0;right=0;pointerEvents=1;fontSize=18;strokeColor=default;align=left;" parent="MPrAv_WxjmN06zbMls3C-178" vertex="1">
          <mxGeometry width="240" height="40" as="geometry">
            <mxRectangle width="240" height="40" as="alternateBounds" />
          </mxGeometry>
        </mxCell>
        <mxCell id="MPrAv_WxjmN06zbMls3C-180" value="&lt;span style=&quot;&quot;&gt;Unknow&lt;/span&gt;" style="shape=partialRectangle;html=1;whiteSpace=wrap;connectable=0;overflow=hidden;fillColor=none;top=0;left=0;bottom=0;right=0;pointerEvents=1;fontSize=18;strokeColor=default;align=center;" parent="MPrAv_WxjmN06zbMls3C-178" vertex="1">
          <mxGeometry x="240" width="290" height="40" as="geometry">
            <mxRectangle width="290" height="40" as="alternateBounds" />
          </mxGeometry>
        </mxCell>
        <mxCell id="MPrAv_WxjmN06zbMls3C-181" value="" style="shape=partialRectangle;collapsible=0;dropTarget=0;pointerEvents=0;fillColor=none;top=0;left=0;bottom=0;right=0;points=[[0,0.5],[1,0.5]];portConstraint=eastwest;fontSize=18;strokeColor=default;" parent="MPrAv_WxjmN06zbMls3C-168" vertex="1">
          <mxGeometry y="160" width="530" height="40" as="geometry" />
        </mxCell>
        <mxCell id="MPrAv_WxjmN06zbMls3C-182" value="PAGE_ulCount" style="shape=partialRectangle;html=1;whiteSpace=wrap;connectable=0;overflow=hidden;fillColor=none;top=0;left=0;bottom=0;right=0;pointerEvents=1;fontSize=18;strokeColor=default;align=left;" parent="MPrAv_WxjmN06zbMls3C-181" vertex="1">
          <mxGeometry width="240" height="40" as="geometry">
            <mxRectangle width="240" height="40" as="alternateBounds" />
          </mxGeometry>
        </mxCell>
        <mxCell id="MPrAv_WxjmN06zbMls3C-183" value="9000" style="shape=partialRectangle;html=1;whiteSpace=wrap;connectable=0;overflow=hidden;fillColor=none;top=0;left=0;bottom=0;right=0;pointerEvents=1;fontSize=18;strokeColor=default;align=center;" parent="MPrAv_WxjmN06zbMls3C-181" vertex="1">
          <mxGeometry x="240" width="290" height="40" as="geometry">
            <mxRectangle width="290" height="40" as="alternateBounds" />
          </mxGeometry>
        </mxCell>
        <mxCell id="MPrAv_WxjmN06zbMls3C-184" value="" style="shape=partialRectangle;collapsible=0;dropTarget=0;pointerEvents=0;fillColor=none;top=0;left=0;bottom=0;right=0;points=[[0,0.5],[1,0.5]];portConstraint=eastwest;fontSize=18;strokeColor=default;" parent="MPrAv_WxjmN06zbMls3C-168" vertex="1">
          <mxGeometry y="200" width="530" height="40" as="geometry" />
        </mxCell>
        <mxCell id="MPrAv_WxjmN06zbMls3C-185" value="PAGE_ulPageAddr" style="shape=partialRectangle;html=1;whiteSpace=wrap;connectable=0;overflow=hidden;fillColor=none;top=0;left=0;bottom=0;right=0;pointerEvents=1;fontSize=18;strokeColor=default;align=left;" parent="MPrAv_WxjmN06zbMls3C-184" vertex="1">
          <mxGeometry width="240" height="40" as="geometry">
            <mxRectangle width="240" height="40" as="alternateBounds" />
          </mxGeometry>
        </mxCell>
        <mxCell id="MPrAv_WxjmN06zbMls3C-186" value="0x20FA 0000" style="shape=partialRectangle;html=1;whiteSpace=wrap;connectable=0;overflow=hidden;fillColor=none;top=0;left=0;bottom=0;right=0;pointerEvents=1;fontSize=18;strokeColor=default;align=center;" parent="MPrAv_WxjmN06zbMls3C-184" vertex="1">
          <mxGeometry x="240" width="290" height="40" as="geometry">
            <mxRectangle width="290" height="40" as="alternateBounds" />
          </mxGeometry>
        </mxCell>
        <mxCell id="MPrAv_WxjmN06zbMls3C-187" value="" style="shape=partialRectangle;collapsible=0;dropTarget=0;pointerEvents=0;fillColor=none;top=0;left=0;bottom=0;right=0;points=[[0,0.5],[1,0.5]];portConstraint=eastwest;fontSize=18;strokeColor=default;" parent="MPrAv_WxjmN06zbMls3C-168" vertex="1">
          <mxGeometry y="240" width="530" height="40" as="geometry" />
        </mxCell>
        <mxCell id="MPrAv_WxjmN06zbMls3C-188" value="PAGE_iPageType" style="shape=partialRectangle;html=1;whiteSpace=wrap;connectable=0;overflow=hidden;fillColor=none;top=0;left=0;bottom=0;right=0;pointerEvents=1;fontSize=18;strokeColor=default;align=left;" parent="MPrAv_WxjmN06zbMls3C-187" vertex="1">
          <mxGeometry width="240" height="40" as="geometry">
            <mxRectangle width="240" height="40" as="alternateBounds" />
          </mxGeometry>
        </mxCell>
        <mxCell id="MPrAv_WxjmN06zbMls3C-189" value="1(__VMM_PAGE_TYPE_VIRTUAL)" style="shape=partialRectangle;html=1;whiteSpace=wrap;connectable=0;overflow=hidden;fillColor=none;top=0;left=0;bottom=0;right=0;pointerEvents=1;fontSize=18;strokeColor=default;align=center;" parent="MPrAv_WxjmN06zbMls3C-187" vertex="1">
          <mxGeometry x="240" width="290" height="40" as="geometry">
            <mxRectangle width="290" height="40" as="alternateBounds" />
          </mxGeometry>
        </mxCell>
        <mxCell id="MPrAv_WxjmN06zbMls3C-190" value="" style="shape=partialRectangle;collapsible=0;dropTarget=0;pointerEvents=0;fillColor=none;top=0;left=0;bottom=0;right=0;points=[[0,0.5],[1,0.5]];portConstraint=eastwest;fontSize=18;strokeColor=default;" parent="MPrAv_WxjmN06zbMls3C-168" vertex="1">
          <mxGeometry y="280" width="530" height="40" as="geometry" />
        </mxCell>
        <mxCell id="MPrAv_WxjmN06zbMls3C-191" value="PAGE_ulFlags" style="shape=partialRectangle;html=1;whiteSpace=wrap;connectable=0;overflow=hidden;fillColor=none;top=0;left=0;bottom=0;right=0;pointerEvents=1;fontSize=18;strokeColor=default;align=left;" parent="MPrAv_WxjmN06zbMls3C-190" vertex="1">
          <mxGeometry width="240" height="40" as="geometry">
            <mxRectangle width="240" height="40" as="alternateBounds" />
          </mxGeometry>
        </mxCell>
        <mxCell id="MPrAv_WxjmN06zbMls3C-192" value="&lt;span&gt;0&lt;/span&gt;" style="shape=partialRectangle;html=1;whiteSpace=wrap;connectable=0;overflow=hidden;fillColor=none;top=0;left=0;bottom=0;right=0;pointerEvents=1;fontSize=18;strokeColor=default;align=center;" parent="MPrAv_WxjmN06zbMls3C-190" vertex="1">
          <mxGeometry x="240" width="290" height="40" as="geometry">
            <mxRectangle width="290" height="40" as="alternateBounds" />
          </mxGeometry>
        </mxCell>
        <mxCell id="MPrAv_WxjmN06zbMls3C-193" style="shape=partialRectangle;collapsible=0;dropTarget=0;pointerEvents=0;fillColor=none;top=0;left=0;bottom=0;right=0;points=[[0,0.5],[1,0.5]];portConstraint=eastwest;fontSize=18;strokeColor=default;" parent="MPrAv_WxjmN06zbMls3C-168" vertex="1">
          <mxGeometry y="320" width="530" height="40" as="geometry" />
        </mxCell>
        <mxCell id="MPrAv_WxjmN06zbMls3C-194" value="PAGE_bUsed" style="shape=partialRectangle;html=1;whiteSpace=wrap;connectable=0;overflow=hidden;fillColor=none;top=0;left=0;bottom=0;right=0;pointerEvents=1;fontSize=18;strokeColor=default;align=left;" parent="MPrAv_WxjmN06zbMls3C-193" vertex="1">
          <mxGeometry width="240" height="40" as="geometry">
            <mxRectangle width="240" height="40" as="alternateBounds" />
          </mxGeometry>
        </mxCell>
        <mxCell id="MPrAv_WxjmN06zbMls3C-195" value="LW_FALSE" style="shape=partialRectangle;html=1;whiteSpace=wrap;connectable=0;overflow=hidden;fillColor=none;top=0;left=0;bottom=0;right=0;pointerEvents=1;fontSize=18;strokeColor=default;align=center;" parent="MPrAv_WxjmN06zbMls3C-193" vertex="1">
          <mxGeometry x="240" width="290" height="40" as="geometry">
            <mxRectangle width="290" height="40" as="alternateBounds" />
          </mxGeometry>
        </mxCell>
        <mxCell id="MPrAv_WxjmN06zbMls3C-196" style="shape=partialRectangle;collapsible=0;dropTarget=0;pointerEvents=0;fillColor=none;top=0;left=0;bottom=0;right=0;points=[[0,0.5],[1,0.5]];portConstraint=eastwest;fontSize=18;strokeColor=default;" parent="MPrAv_WxjmN06zbMls3C-168" vertex="1">
          <mxGeometry y="360" width="530" height="40" as="geometry" />
        </mxCell>
        <mxCell id="MPrAv_WxjmN06zbMls3C-197" value="PAGE_pvmzoneOwner" style="shape=partialRectangle;html=1;whiteSpace=wrap;connectable=0;overflow=hidden;fillColor=none;top=0;left=0;bottom=0;right=0;pointerEvents=1;fontSize=18;strokeColor=default;align=left;" parent="MPrAv_WxjmN06zbMls3C-196" vertex="1">
          <mxGeometry width="240" height="40" as="geometry">
            <mxRectangle width="240" height="40" as="alternateBounds" />
          </mxGeometry>
        </mxCell>
        <mxCell id="MPrAv_WxjmN06zbMls3C-198" value="pvmzone" style="shape=partialRectangle;html=1;whiteSpace=wrap;connectable=0;overflow=hidden;fillColor=#fa6800;top=0;left=0;bottom=0;right=0;pointerEvents=1;fontSize=18;strokeColor=#C73500;align=center;fontColor=#000000;" parent="MPrAv_WxjmN06zbMls3C-196" vertex="1">
          <mxGeometry x="240" width="290" height="40" as="geometry">
            <mxRectangle width="290" height="40" as="alternateBounds" />
          </mxGeometry>
        </mxCell>
        <mxCell id="MPrAv_WxjmN06zbMls3C-199" style="shape=partialRectangle;collapsible=0;dropTarget=0;pointerEvents=0;fillColor=none;top=0;left=0;bottom=0;right=0;points=[[0,0.5],[1,0.5]];portConstraint=eastwest;fontSize=18;strokeColor=default;" parent="MPrAv_WxjmN06zbMls3C-168" vertex="1">
          <mxGeometry y="400" width="530" height="40" as="geometry" />
        </mxCell>
        <mxCell id="MPrAv_WxjmN06zbMls3C-200" value="VPAGE_pvAreaCb" style="shape=partialRectangle;html=1;whiteSpace=wrap;connectable=0;overflow=hidden;fillColor=none;top=0;left=0;bottom=0;right=0;pointerEvents=1;fontSize=18;strokeColor=default;align=left;" parent="MPrAv_WxjmN06zbMls3C-199" vertex="1">
          <mxGeometry width="240" height="40" as="geometry">
            <mxRectangle width="240" height="40" as="alternateBounds" />
          </mxGeometry>
        </mxCell>
        <mxCell id="MPrAv_WxjmN06zbMls3C-201" value="NULL" style="shape=partialRectangle;html=1;whiteSpace=wrap;connectable=0;overflow=hidden;fillColor=none;top=0;left=0;bottom=0;right=0;pointerEvents=1;fontSize=18;strokeColor=default;align=center;" parent="MPrAv_WxjmN06zbMls3C-199" vertex="1">
          <mxGeometry x="240" width="290" height="40" as="geometry">
            <mxRectangle width="290" height="40" as="alternateBounds" />
          </mxGeometry>
        </mxCell>
        <mxCell id="MPrAv_WxjmN06zbMls3C-202" style="edgeStyle=orthogonalEdgeStyle;rounded=0;orthogonalLoop=1;jettySize=auto;html=1;entryX=1;entryY=0.5;entryDx=0;entryDy=0;fontSize=18;fontColor=#000000;strokeWidth=2;" parent="MPrAv_WxjmN06zbMls3C-168" source="MPrAv_WxjmN06zbMls3C-203" target="MPrAv_WxjmN06zbMls3C-206" edge="1">
          <mxGeometry relative="1" as="geometry">
            <Array as="points">
              <mxPoint x="770" y="460" />
              <mxPoint x="770" y="500" />
            </Array>
          </mxGeometry>
        </mxCell>
        <mxCell id="MPrAv_WxjmN06zbMls3C-203" style="shape=partialRectangle;collapsible=0;dropTarget=0;pointerEvents=0;fillColor=none;top=0;left=0;bottom=0;right=0;points=[[0,0.5],[1,0.5]];portConstraint=eastwest;fontSize=18;strokeColor=default;" parent="MPrAv_WxjmN06zbMls3C-168" vertex="1">
          <mxGeometry y="440" width="530" height="40" as="geometry" />
        </mxCell>
        <mxCell id="MPrAv_WxjmN06zbMls3C-204" value="VPAGE_plinePhyLink" style="shape=partialRectangle;html=1;whiteSpace=wrap;connectable=0;overflow=hidden;fillColor=none;top=0;left=0;bottom=0;right=0;pointerEvents=1;fontSize=18;strokeColor=default;align=left;" parent="MPrAv_WxjmN06zbMls3C-203" vertex="1">
          <mxGeometry width="240" height="40" as="geometry">
            <mxRectangle width="240" height="40" as="alternateBounds" />
          </mxGeometry>
        </mxCell>
        <mxCell id="MPrAv_WxjmN06zbMls3C-205" value="&lt;span&gt;指针&lt;/span&gt;" style="shape=partialRectangle;html=1;whiteSpace=wrap;connectable=0;overflow=hidden;fillColor=none;top=0;left=0;bottom=0;right=0;pointerEvents=1;fontSize=18;strokeColor=default;align=center;" parent="MPrAv_WxjmN06zbMls3C-203" vertex="1">
          <mxGeometry x="240" width="290" height="40" as="geometry">
            <mxRectangle width="290" height="40" as="alternateBounds" />
          </mxGeometry>
        </mxCell>
        <mxCell id="MPrAv_WxjmN06zbMls3C-206" style="shape=partialRectangle;collapsible=0;dropTarget=0;pointerEvents=0;fillColor=none;top=0;left=0;bottom=0;right=0;points=[[0,0.5],[1,0.5]];portConstraint=eastwest;fontSize=18;strokeColor=default;" parent="MPrAv_WxjmN06zbMls3C-168" vertex="1">
          <mxGeometry y="480" width="530" height="40" as="geometry" />
        </mxCell>
        <mxCell id="MPrAv_WxjmN06zbMls3C-207" value="LW_LIST_LINE_HEADER[0]" style="shape=partialRectangle;html=1;whiteSpace=wrap;connectable=0;overflow=hidden;fillColor=none;top=0;left=0;bottom=0;right=0;pointerEvents=1;fontSize=18;strokeColor=default;align=left;" parent="MPrAv_WxjmN06zbMls3C-206" vertex="1">
          <mxGeometry width="240" height="40" as="geometry">
            <mxRectangle width="240" height="40" as="alternateBounds" />
          </mxGeometry>
        </mxCell>
        <mxCell id="MPrAv_WxjmN06zbMls3C-208" value="NULL" style="shape=partialRectangle;html=1;whiteSpace=wrap;connectable=0;overflow=hidden;fillColor=none;top=0;left=0;bottom=0;right=0;pointerEvents=1;fontSize=18;strokeColor=default;align=center;" parent="MPrAv_WxjmN06zbMls3C-206" vertex="1">
          <mxGeometry x="240" width="290" height="40" as="geometry">
            <mxRectangle width="290" height="40" as="alternateBounds" />
          </mxGeometry>
        </mxCell>
        <mxCell id="MPrAv_WxjmN06zbMls3C-209" style="shape=partialRectangle;collapsible=0;dropTarget=0;pointerEvents=0;fillColor=none;top=0;left=0;bottom=0;right=0;points=[[0,0.5],[1,0.5]];portConstraint=eastwest;fontSize=18;strokeColor=default;" parent="MPrAv_WxjmN06zbMls3C-168" vertex="1">
          <mxGeometry y="520" width="530" height="40" as="geometry" />
        </mxCell>
        <mxCell id="MPrAv_WxjmN06zbMls3C-210" value="..." style="shape=partialRectangle;html=1;whiteSpace=wrap;connectable=0;overflow=hidden;fillColor=none;top=0;left=0;bottom=0;right=0;pointerEvents=1;fontSize=18;strokeColor=default;align=left;" parent="MPrAv_WxjmN06zbMls3C-209" vertex="1">
          <mxGeometry width="240" height="40" as="geometry">
            <mxRectangle width="240" height="40" as="alternateBounds" />
          </mxGeometry>
        </mxCell>
        <mxCell id="MPrAv_WxjmN06zbMls3C-211" value="NULL" style="shape=partialRectangle;html=1;whiteSpace=wrap;connectable=0;overflow=hidden;fillColor=none;top=0;left=0;bottom=0;right=0;pointerEvents=1;fontSize=18;strokeColor=default;align=center;" parent="MPrAv_WxjmN06zbMls3C-209" vertex="1">
          <mxGeometry x="240" width="290" height="40" as="geometry">
            <mxRectangle width="290" height="40" as="alternateBounds" />
          </mxGeometry>
        </mxCell>
        <mxCell id="MPrAv_WxjmN06zbMls3C-212" style="shape=partialRectangle;collapsible=0;dropTarget=0;pointerEvents=0;fillColor=none;top=0;left=0;bottom=0;right=0;points=[[0,0.5],[1,0.5]];portConstraint=eastwest;fontSize=18;strokeColor=default;" parent="MPrAv_WxjmN06zbMls3C-168" vertex="1">
          <mxGeometry y="560" width="530" height="40" as="geometry" />
        </mxCell>
        <mxCell id="MPrAv_WxjmN06zbMls3C-213" value="LW_LIST_LINE_HEADER[31]" style="shape=partialRectangle;html=1;whiteSpace=wrap;connectable=0;overflow=hidden;fillColor=none;top=0;left=0;bottom=0;right=0;pointerEvents=1;fontSize=18;strokeColor=default;align=left;" parent="MPrAv_WxjmN06zbMls3C-212" vertex="1">
          <mxGeometry width="240" height="40" as="geometry">
            <mxRectangle width="240" height="40" as="alternateBounds" />
          </mxGeometry>
        </mxCell>
        <mxCell id="MPrAv_WxjmN06zbMls3C-214" value="NULL" style="shape=partialRectangle;html=1;whiteSpace=wrap;connectable=0;overflow=hidden;fillColor=none;top=0;left=0;bottom=0;right=0;pointerEvents=1;fontSize=18;strokeColor=default;align=center;" parent="MPrAv_WxjmN06zbMls3C-212" vertex="1">
          <mxGeometry x="240" width="290" height="40" as="geometry">
            <mxRectangle width="290" height="40" as="alternateBounds" />
          </mxGeometry>
        </mxCell>
        <mxCell id="MPrAv_WxjmN06zbMls3C-215" value="" style="shape=table;startSize=0;container=1;collapsible=0;childLayout=tableLayout;fontSize=18;strokeColor=default;fillColor=none;gradientColor=none;align=center;" parent="1" vertex="1">
          <mxGeometry x="2750" y="439" width="530" height="120" as="geometry" />
        </mxCell>
        <mxCell id="MPrAv_WxjmN06zbMls3C-216" value="" style="shape=partialRectangle;collapsible=0;dropTarget=0;pointerEvents=0;fillColor=none;top=0;left=0;bottom=0;right=0;points=[[0,0.5],[1,0.5]];portConstraint=eastwest;fontSize=18;strokeColor=default;align=center;opacity=70;" parent="MPrAv_WxjmN06zbMls3C-215" vertex="1">
          <mxGeometry width="530" height="40" as="geometry" />
        </mxCell>
        <mxCell id="MPrAv_WxjmN06zbMls3C-217" value="成员" style="shape=partialRectangle;html=1;whiteSpace=wrap;connectable=0;overflow=hidden;fillColor=#bac8d3;top=0;left=0;bottom=0;right=0;pointerEvents=1;fontSize=18;strokeColor=#23445d;align=center;" parent="MPrAv_WxjmN06zbMls3C-216" vertex="1">
          <mxGeometry width="265" height="40" as="geometry">
            <mxRectangle width="265" height="40" as="alternateBounds" />
          </mxGeometry>
        </mxCell>
        <mxCell id="MPrAv_WxjmN06zbMls3C-218" value="值" style="shape=partialRectangle;html=1;whiteSpace=wrap;connectable=0;overflow=hidden;fillColor=#bac8d3;top=0;left=0;bottom=0;right=0;pointerEvents=1;fontSize=18;strokeColor=#23445d;align=center;" parent="MPrAv_WxjmN06zbMls3C-216" vertex="1">
          <mxGeometry x="265" width="265" height="40" as="geometry">
            <mxRectangle width="265" height="40" as="alternateBounds" />
          </mxGeometry>
        </mxCell>
        <mxCell id="MPrAv_WxjmN06zbMls3C-219" value="" style="shape=partialRectangle;collapsible=0;dropTarget=0;pointerEvents=0;fillColor=none;top=0;left=0;bottom=0;right=0;points=[[0,0.5],[1,0.5]];portConstraint=eastwest;fontSize=18;strokeColor=default;align=center;opacity=70;" parent="MPrAv_WxjmN06zbMls3C-215" vertex="1">
          <mxGeometry y="40" width="530" height="40" as="geometry" />
        </mxCell>
        <mxCell id="MPrAv_WxjmN06zbMls3C-220" value="LINE_plistNext" style="shape=partialRectangle;html=1;whiteSpace=wrap;connectable=0;overflow=hidden;fillColor=#6a00ff;top=0;left=0;bottom=0;right=0;pointerEvents=1;fontSize=18;strokeColor=#3700CC;align=center;fontColor=#ffffff;" parent="MPrAv_WxjmN06zbMls3C-219" vertex="1">
          <mxGeometry width="265" height="40" as="geometry">
            <mxRectangle width="265" height="40" as="alternateBounds" />
          </mxGeometry>
        </mxCell>
        <mxCell id="MPrAv_WxjmN06zbMls3C-221" value="指针" style="shape=partialRectangle;html=1;whiteSpace=wrap;connectable=0;overflow=hidden;fillColor=none;top=0;left=0;bottom=0;right=0;pointerEvents=1;fontSize=18;strokeColor=default;align=center;opacity=70;" parent="MPrAv_WxjmN06zbMls3C-219" vertex="1">
          <mxGeometry x="265" width="265" height="40" as="geometry">
            <mxRectangle width="265" height="40" as="alternateBounds" />
          </mxGeometry>
        </mxCell>
        <mxCell id="MPrAv_WxjmN06zbMls3C-222" value="" style="shape=partialRectangle;collapsible=0;dropTarget=0;pointerEvents=0;fillColor=none;top=0;left=0;bottom=0;right=0;points=[[0,0.5],[1,0.5]];portConstraint=eastwest;fontSize=18;strokeColor=default;align=center;opacity=70;" parent="MPrAv_WxjmN06zbMls3C-215" vertex="1">
          <mxGeometry y="80" width="530" height="40" as="geometry" />
        </mxCell>
        <mxCell id="MPrAv_WxjmN06zbMls3C-223" value="LINE_plistPrev" style="shape=partialRectangle;html=1;whiteSpace=wrap;connectable=0;overflow=hidden;fillColor=#6a00ff;top=0;left=0;bottom=0;right=0;pointerEvents=1;fontSize=18;strokeColor=#3700CC;align=center;fontColor=#ffffff;" parent="MPrAv_WxjmN06zbMls3C-222" vertex="1">
          <mxGeometry width="265" height="40" as="geometry">
            <mxRectangle width="265" height="40" as="alternateBounds" />
          </mxGeometry>
        </mxCell>
        <mxCell id="MPrAv_WxjmN06zbMls3C-224" value="NULL" style="shape=partialRectangle;html=1;whiteSpace=wrap;connectable=0;overflow=hidden;fillColor=none;top=0;left=0;bottom=0;right=0;pointerEvents=1;fontSize=18;strokeColor=default;align=center;opacity=70;" parent="MPrAv_WxjmN06zbMls3C-222" vertex="1">
          <mxGeometry x="265" width="265" height="40" as="geometry">
            <mxRectangle width="265" height="40" as="alternateBounds" />
          </mxGeometry>
        </mxCell>
        <mxCell id="MPrAv_WxjmN06zbMls3C-225" value="" style="shape=table;startSize=0;container=1;collapsible=0;childLayout=tableLayout;fontSize=18;strokeColor=default;fillColor=none;gradientColor=none;align=center;" parent="1" vertex="1">
          <mxGeometry x="2750" y="610" width="530" height="120" as="geometry" />
        </mxCell>
        <mxCell id="MPrAv_WxjmN06zbMls3C-226" value="" style="shape=partialRectangle;collapsible=0;dropTarget=0;pointerEvents=0;fillColor=none;top=0;left=0;bottom=0;right=0;points=[[0,0.5],[1,0.5]];portConstraint=eastwest;fontSize=18;strokeColor=default;align=center;opacity=70;" parent="MPrAv_WxjmN06zbMls3C-225" vertex="1">
          <mxGeometry width="530" height="40" as="geometry" />
        </mxCell>
        <mxCell id="MPrAv_WxjmN06zbMls3C-227" value="成员" style="shape=partialRectangle;html=1;whiteSpace=wrap;connectable=0;overflow=hidden;fillColor=#bac8d3;top=0;left=0;bottom=0;right=0;pointerEvents=1;fontSize=18;strokeColor=#23445d;align=center;" parent="MPrAv_WxjmN06zbMls3C-226" vertex="1">
          <mxGeometry width="265" height="40" as="geometry">
            <mxRectangle width="265" height="40" as="alternateBounds" />
          </mxGeometry>
        </mxCell>
        <mxCell id="MPrAv_WxjmN06zbMls3C-228" value="值" style="shape=partialRectangle;html=1;whiteSpace=wrap;connectable=0;overflow=hidden;fillColor=#bac8d3;top=0;left=0;bottom=0;right=0;pointerEvents=1;fontSize=18;strokeColor=#23445d;align=center;" parent="MPrAv_WxjmN06zbMls3C-226" vertex="1">
          <mxGeometry x="265" width="265" height="40" as="geometry">
            <mxRectangle width="265" height="40" as="alternateBounds" />
          </mxGeometry>
        </mxCell>
        <mxCell id="MPrAv_WxjmN06zbMls3C-229" value="" style="shape=partialRectangle;collapsible=0;dropTarget=0;pointerEvents=0;fillColor=none;top=0;left=0;bottom=0;right=0;points=[[0,0.5],[1,0.5]];portConstraint=eastwest;fontSize=18;strokeColor=default;align=center;opacity=70;" parent="MPrAv_WxjmN06zbMls3C-225" vertex="1">
          <mxGeometry y="40" width="530" height="40" as="geometry" />
        </mxCell>
        <mxCell id="MPrAv_WxjmN06zbMls3C-230" value="LINE_plistNext" style="shape=partialRectangle;html=1;whiteSpace=wrap;connectable=0;overflow=hidden;fillColor=#6a00ff;top=0;left=0;bottom=0;right=0;pointerEvents=1;fontSize=18;strokeColor=#3700CC;align=center;fontColor=#ffffff;" parent="MPrAv_WxjmN06zbMls3C-229" vertex="1">
          <mxGeometry width="265" height="40" as="geometry">
            <mxRectangle width="265" height="40" as="alternateBounds" />
          </mxGeometry>
        </mxCell>
        <mxCell id="MPrAv_WxjmN06zbMls3C-231" value="NULL" style="shape=partialRectangle;html=1;whiteSpace=wrap;connectable=0;overflow=hidden;fillColor=none;top=0;left=0;bottom=0;right=0;pointerEvents=1;fontSize=18;strokeColor=default;align=center;opacity=70;" parent="MPrAv_WxjmN06zbMls3C-229" vertex="1">
          <mxGeometry x="265" width="265" height="40" as="geometry">
            <mxRectangle width="265" height="40" as="alternateBounds" />
          </mxGeometry>
        </mxCell>
        <mxCell id="MPrAv_WxjmN06zbMls3C-232" value="" style="shape=partialRectangle;collapsible=0;dropTarget=0;pointerEvents=0;fillColor=none;top=0;left=0;bottom=0;right=0;points=[[0,0.5],[1,0.5]];portConstraint=eastwest;fontSize=18;strokeColor=default;align=center;opacity=70;" parent="MPrAv_WxjmN06zbMls3C-225" vertex="1">
          <mxGeometry y="80" width="530" height="40" as="geometry" />
        </mxCell>
        <mxCell id="MPrAv_WxjmN06zbMls3C-233" value="LINE_plistPrev" style="shape=partialRectangle;html=1;whiteSpace=wrap;connectable=0;overflow=hidden;fillColor=#6a00ff;top=0;left=0;bottom=0;right=0;pointerEvents=1;fontSize=18;strokeColor=#3700CC;align=center;fontColor=#ffffff;" parent="MPrAv_WxjmN06zbMls3C-232" vertex="1">
          <mxGeometry width="265" height="40" as="geometry">
            <mxRectangle width="265" height="40" as="alternateBounds" />
          </mxGeometry>
        </mxCell>
        <mxCell id="MPrAv_WxjmN06zbMls3C-234" value="指针" style="shape=partialRectangle;html=1;whiteSpace=wrap;connectable=0;overflow=hidden;fillColor=none;top=0;left=0;bottom=0;right=0;pointerEvents=1;fontSize=18;strokeColor=default;align=center;opacity=70;" parent="MPrAv_WxjmN06zbMls3C-232" vertex="1">
          <mxGeometry x="265" width="265" height="40" as="geometry">
            <mxRectangle width="265" height="40" as="alternateBounds" />
          </mxGeometry>
        </mxCell>
        <mxCell id="MPrAv_WxjmN06zbMls3C-235" value="&lt;b&gt;pvmpageFit=pvmpage&lt;/b&gt;" style="text;whiteSpace=wrap;html=1;fontSize=18;" parent="1" vertex="1">
          <mxGeometry x="1700" y="-260" width="210" height="40" as="geometry" />
        </mxCell>
        <mxCell id="MPrAv_WxjmN06zbMls3C-236" style="edgeStyle=orthogonalEdgeStyle;rounded=0;orthogonalLoop=1;jettySize=auto;html=1;entryX=1;entryY=0.9;entryDx=0;entryDy=0;entryPerimeter=0;fontSize=18;fontColor=#000000;strokeWidth=2;" parent="1" source="MPrAv_WxjmN06zbMls3C-172" target="MPrAv_WxjmN06zbMls3C-216" edge="1">
          <mxGeometry relative="1" as="geometry">
            <Array as="points">
              <mxPoint x="3560" y="-160" />
              <mxPoint x="3560" y="475" />
            </Array>
          </mxGeometry>
        </mxCell>
        <mxCell id="MPrAv_WxjmN06zbMls3C-237" value="&lt;b&gt;LW_LIST_LINE&lt;/b&gt;" style="text;whiteSpace=wrap;html=1;fontSize=18;" parent="1" vertex="1">
          <mxGeometry x="2750" y="407" width="210" height="40" as="geometry" />
        </mxCell>
        <mxCell id="MPrAv_WxjmN06zbMls3C-238" value="&lt;b&gt;LW_LIST_LINE&lt;/b&gt;" style="text;whiteSpace=wrap;html=1;fontSize=18;" parent="1" vertex="1">
          <mxGeometry x="2750" y="576.5" width="210" height="40" as="geometry" />
        </mxCell>
        <mxCell id="MPrAv_WxjmN06zbMls3C-239" value="&lt;b&gt;LW_LIST_LINE&lt;/b&gt;" style="text;whiteSpace=wrap;html=1;fontSize=18;" parent="1" vertex="1">
          <mxGeometry x="1700" y="564" width="210" height="40" as="geometry" />
        </mxCell>
        <mxCell id="MPrAv_WxjmN06zbMls3C-240" style="edgeStyle=orthogonalEdgeStyle;rounded=0;orthogonalLoop=1;jettySize=auto;html=1;entryX=0.99;entryY=0.033;entryDx=0;entryDy=0;entryPerimeter=0;fontSize=18;fontColor=#000000;strokeWidth=2;" parent="1" source="MPrAv_WxjmN06zbMls3C-175" target="MPrAv_WxjmN06zbMls3C-229" edge="1">
          <mxGeometry relative="1" as="geometry">
            <Array as="points">
              <mxPoint x="3600" y="-120" />
              <mxPoint x="3600" y="651" />
            </Array>
          </mxGeometry>
        </mxCell>
        <mxCell id="MPrAv_WxjmN06zbMls3C-241" style="edgeStyle=orthogonalEdgeStyle;rounded=0;orthogonalLoop=1;jettySize=auto;html=1;fontSize=18;fontColor=#000000;strokeWidth=2;entryX=0.009;entryY=0.025;entryDx=0;entryDy=0;entryPerimeter=0;fillColor=#a0522d;strokeColor=#6D1F00;" parent="1" source="MPrAv_WxjmN06zbMls3C-161" target="MPrAv_WxjmN06zbMls3C-229" edge="1">
          <mxGeometry relative="1" as="geometry">
            <mxPoint x="2753" y="640" as="targetPoint" />
            <Array as="points">
              <mxPoint x="2360" y="651" />
              <mxPoint x="2360" y="651" />
            </Array>
          </mxGeometry>
        </mxCell>
        <mxCell id="MPrAv_WxjmN06zbMls3C-242" style="edgeStyle=orthogonalEdgeStyle;rounded=0;orthogonalLoop=1;jettySize=auto;html=1;fontSize=18;fontColor=#000000;strokeWidth=2;exitX=-0.001;exitY=0.263;exitDx=0;exitDy=0;exitPerimeter=0;fillColor=#a0522d;strokeColor=#6D1F00;" parent="1" source="MPrAv_WxjmN06zbMls3C-232" edge="1">
          <mxGeometry relative="1" as="geometry">
            <mxPoint x="2232" y="631" as="targetPoint" />
            <mxPoint x="2742.0000000000005" y="701" as="sourcePoint" />
            <Array as="points">
              <mxPoint x="2582" y="701" />
              <mxPoint x="2582" y="631" />
            </Array>
          </mxGeometry>
        </mxCell>
        <mxCell id="MPrAv_WxjmN06zbMls3C-243" value="_List_Line_Add_Tail" style="text;whiteSpace=wrap;html=1;fontSize=18;fontColor=#000000;" parent="1" vertex="1">
          <mxGeometry x="2340" y="650" width="190" height="40" as="geometry" />
        </mxCell>
        <mxCell id="MPrAv_WxjmN06zbMls3C-244" value="__pageInitLink(pvmpage)" style="text;whiteSpace=wrap;html=1;fontSize=18;" parent="1" vertex="1">
          <mxGeometry x="3290" y="207" width="230" height="40" as="geometry" />
        </mxCell>
        <mxCell id="MPrAv_WxjmN06zbMls3C-245" value="指针指向物理页面hash表" style="text;html=1;strokeColor=none;fillColor=none;align=center;verticalAlign=middle;whiteSpace=wrap;rounded=0;fontSize=18;opacity=70;" parent="1" vertex="1">
          <mxGeometry x="3290" y="295" width="230" height="30" as="geometry" />
        </mxCell>
        <mxCell id="MPrAv_WxjmN06zbMls3C-246" style="edgeStyle=orthogonalEdgeStyle;rounded=0;orthogonalLoop=1;jettySize=auto;html=1;fontSize=18;fontColor=#000000;strokeWidth=2;" parent="1" source="MPrAv_WxjmN06zbMls3C-196" target="MPrAv_WxjmN06zbMls3C-54" edge="1">
          <mxGeometry relative="1" as="geometry">
            <mxPoint x="1480" y="-300" as="targetPoint" />
            <Array as="points">
              <mxPoint x="3400" y="160" />
              <mxPoint x="3400" y="-310" />
            </Array>
          </mxGeometry>
        </mxCell>
        <mxCell id="K1K9hNSSAG25kyHtppXI-1" style="edgeStyle=orthogonalEdgeStyle;rounded=0;orthogonalLoop=1;jettySize=auto;html=1;exitX=1;exitY=0.5;exitDx=0;exitDy=0;strokeWidth=2;strokeColor=#FF0000;" parent="1" source="MPrAv_WxjmN06zbMls3C-109" edge="1">
          <mxGeometry relative="1" as="geometry">
            <mxPoint x="2749" y="476" as="targetPoint" />
            <mxPoint x="1429" y="490" as="sourcePoint" />
            <Array as="points">
              <mxPoint x="1680" y="490" />
              <mxPoint x="1680" y="570" />
              <mxPoint x="2679" y="570" />
              <mxPoint x="2679" y="476" />
            </Array>
          </mxGeometry>
        </mxCell>
        <mxCell id="K1K9hNSSAG25kyHtppXI-2" value="__pageAddToFreeHash" style="text;whiteSpace=wrap;html=1;" parent="1" vertex="1">
          <mxGeometry x="1470" y="490" width="150" height="30" as="geometry" />
        </mxCell>
      </root>
    </mxGraphModel>
  </diagram>
</mxfile>
